<svg xmlns="http://www.w3.org/2000/svg" width="620" height="200" viewBox="0 0 620 200" role="img" aria-label="When HACS integrations first break: 2026.10 11; 2026.11 96; 2027.5 10; 2027.6 50; 2027.7 15; 2027.8 688; 2027.10 1">
<rect width="620" height="200" rx="8" fill="#ffffff" stroke="#d1d9e0"/>
<text x="22" y="26" font-family="ui-monospace,'Cascadia Code',Consolas,'DejaVu Sans Mono',monospace" font-size="13" fill="#1f2328" font-weight="600">When your HACS integrations first break</text>
<text x="22" y="43" font-family="ui-monospace,'Cascadia Code',Consolas,'DejaVu Sans Mono',monospace" font-size="10.5" fill="#59636e">871 affected, measured against Home Assistant 2026.10</text>
<path d="M51.1,168 V168.0 a2.0,2.0 0 0 1 2.0,-2.0 h20.0 a2.0,2.0 0 0 1 2.0,2.0 V168 Z" fill="#0969da"/>
<text x="63" y="158" text-anchor="middle" font-family="ui-monospace,'Cascadia Code',Consolas,'DejaVu Sans Mono',monospace" font-size="12.5" fill="#1f2328" font-weight="600">11</text>
<text x="63" y="186" text-anchor="middle" font-family="ui-monospace,'Cascadia Code',Consolas,'DejaVu Sans Mono',monospace" font-size="10.5" fill="#59636e">2026.10</text>
<path d="M133.4,168 V156.7 a4.0,4.0 0 0 1 4.0,-4.0 h16.0 a4.0,4.0 0 0 1 4.0,4.0 V168 Z" fill="#0969da"/>
<text x="145" y="145" text-anchor="middle" font-family="ui-monospace,'Cascadia Code',Consolas,'DejaVu Sans Mono',monospace" font-size="12.5" fill="#1f2328" font-weight="600">96</text>
<text x="145" y="186" text-anchor="middle" font-family="ui-monospace,'Cascadia Code',Consolas,'DejaVu Sans Mono',monospace" font-size="10.5" fill="#59636e">2026.11</text>
<path d="M215.7,168 V168.0 a2.0,2.0 0 0 1 2.0,-2.0 h20.0 a2.0,2.0 0 0 1 2.0,2.0 V168 Z" fill="#0969da"/>
<text x="228" y="158" text-anchor="middle" font-family="ui-monospace,'Cascadia Code',Consolas,'DejaVu Sans Mono',monospace" font-size="12.5" fill="#1f2328" font-weight="600">10</text>
<text x="228" y="186" text-anchor="middle" font-family="ui-monospace,'Cascadia Code',Consolas,'DejaVu Sans Mono',monospace" font-size="10.5" fill="#59636e">2027.5</text>
<path d="M298.0,168 V164.0 a4.0,4.0 0 0 1 4.0,-4.0 h16.0 a4.0,4.0 0 0 1 4.0,4.0 V168 Z" fill="#0969da"/>
<text x="310" y="152" text-anchor="middle" font-family="ui-monospace,'Cascadia Code',Consolas,'DejaVu Sans Mono',monospace" font-size="12.5" fill="#1f2328" font-weight="600">50</text>
<text x="310" y="186" text-anchor="middle" font-family="ui-monospace,'Cascadia Code',Consolas,'DejaVu Sans Mono',monospace" font-size="10.5" fill="#59636e">2027.6</text>
<path d="M380.3,168 V168.0 a2.4,2.4 0 0 1 2.4,-2.4 h19.2 a2.4,2.4 0 0 1 2.4,2.4 V168 Z" fill="#0969da"/>
<text x="392" y="158" text-anchor="middle" font-family="ui-monospace,'Cascadia Code',Consolas,'DejaVu Sans Mono',monospace" font-size="12.5" fill="#1f2328" font-weight="600">15</text>
<text x="392" y="186" text-anchor="middle" font-family="ui-monospace,'Cascadia Code',Consolas,'DejaVu Sans Mono',monospace" font-size="10.5" fill="#59636e">2027.7</text>
<path d="M462.6,168 V62.0 a4.0,4.0 0 0 1 4.0,-4.0 h16.0 a4.0,4.0 0 0 1 4.0,4.0 V168 Z" fill="#0969da"/>
<text x="475" y="50" text-anchor="middle" font-family="ui-monospace,'Cascadia Code',Consolas,'DejaVu Sans Mono',monospace" font-size="12.5" fill="#1f2328" font-weight="600">688</text>
<text x="475" y="186" text-anchor="middle" font-family="ui-monospace,'Cascadia Code',Consolas,'DejaVu Sans Mono',monospace" font-size="10.5" fill="#59636e">2027.8</text>
<path d="M544.9,168 V168.0 a2.0,2.0 0 0 1 2.0,-2.0 h20.0 a2.0,2.0 0 0 1 2.0,2.0 V168 Z" fill="#0969da"/>
<text x="557" y="158" text-anchor="middle" font-family="ui-monospace,'Cascadia Code',Consolas,'DejaVu Sans Mono',monospace" font-size="12.5" fill="#1f2328" font-weight="600">1</text>
<text x="557" y="186" text-anchor="middle" font-family="ui-monospace,'Cascadia Code',Consolas,'DejaVu Sans Mono',monospace" font-size="10.5" fill="#59636e">2027.10</text>
<line x1="22" y1="168" x2="598" y2="168" stroke="#d1d9e0"/>
</svg>