<svg xmlns="http://www.w3.org/2000/svg" width="900" height="226" viewBox="0 0 900 226" role="img" aria-label="seed 2026-08-22">
<defs><clipPath id="art"><rect width="900" height="150" rx="8"/></clipPath></defs>
<rect width="900" height="226" rx="8" fill="#05060a" stroke="#1a1e28"/>
<g clip-path="url(#art)">
<polyline points="199,52 205,54 212,57 218,60 225,62 231,65 238,67 245,69 251,70 258,72 265,73 272,73 279,73 286,72 293,71 300,69 306,67 313,64 319,60 324,56 330,51 335,46 339,41 344,36 348,30 352,24 356,19 359,13 363,7 367,1 370,-5 374,-11 378,-17 382,-23 386,-28 390,-34 395,-39 399,-45 404,-50" fill="none" stroke="#58aef2" stroke-width="1.40" stroke-opacity="0.16" stroke-linecap="round"/>
<polyline points="-15,54 -8,57 -2,59 5,61 12,63 19,64 26,65 33,65 40,65 47,66 54,66 61,66 68,66 75,66 82,66 89,67 96,67 103,68 110,69 116,70 123,71 130,73 137,74 144,76 151,78 157,80 164,82 170,85 177,87 184,89 190,92 197,95 203,97 210,100 216,102 223,104 229,107 236,109 243,110 250,112 257,113 264,114 271,114 278,114 285,114 291,112 298,110 305,108 311,104 317,101 322,96 327,91 332,86 336,80 340,74 343,68 346,62 349,56 352,49 355,43 358,37 361,30 363,24 366,17 369,11 372,5 375,-2 378,-8 382,-14 385,-20" fill="none" stroke="#58aef1" stroke-width="1.28" stroke-opacity="0.32" stroke-linecap="round"/>
<polyline points="496,42 494,35 493,28 492,21 493,14 494,7 496,0 499,-6 503,-12 507,-17 512,-22 518,-26 524,-29 531,-31 538,-32 545,-32 552,-32 559,-31 566,-29 572,-27 579,-25 586,-23 592,-20 599,-18 606,-16 612,-14 619,-12 626,-10 632,-8 639,-6 646,-5 653,-4 660,-2 667,-1 674,-0 681,1 688,1 695,2 702,3 708,3 715,4 722,4 729,4 736,4 743,4 750,4 757,4 764,4 771,4 778,4 785,3 792,3 799,2 806,2 813,1 820,0 827,-1 834,-2 841,-3 848,-4 855,-5 862,-6 869,-8 875,-9 882,-11 889,-13 896,-15 903,-16 909,-18 916,-20" fill="none" stroke="#58aef1" stroke-width="1.04" stroke-opacity="0.14" stroke-linecap="round"/>
<polyline points="208,72 215,75 221,77 228,80 234,82 241,84 248,85 255,87 262,88 269,88 276,88 283,88 290,86 296,85 303,82 309,79 315,76 321,72 326,67 331,62 336,57 340,51 344,46 348,40 351,34 355,28 358,22 362,15 365,9 369,3 372,-3 375,-9 379,-15 383,-21 387,-27 391,-32 395,-38 400,-43 404,-48" fill="none" stroke="#59aef0" stroke-width="1.34" stroke-opacity="0.43" stroke-linecap="round"/>
<polyline points="689,133 687,126 684,120 683,113 681,106 680,99 680,92 681,85 682,78 685,72 688,66 692,60 697,55 702,50 708,47 714,43 721,41 727,38 734,36 741,35 748,34 755,33 762,32 769,31 776,31 783,30 790,30 797,30 804,31 811,31 818,31 825,32 832,33 838,34 845,36 852,38 859,40 865,42 872,45 878,49 884,52 889,56 895,61 900,66 904,71 909,77 912,82 916,88 919,95 922,101 925,107 928,114 931,120 933,127 935,133 938,140 940,146 943,153 945,160 948,166 950,173 953,179 956,185 959,192 962,198" fill="none" stroke="#59adf0" stroke-width="1.37" stroke-opacity="0.17" stroke-linecap="round"/>
<polyline points="-2,69 5,71 12,72 19,73 26,74 33,74 40,74 47,74 54,74 61,74 68,74 75,74 82,74 89,75 96,75 103,76 109,77 116,78 123,79 130,80 137,82 144,83 151,85 157,87 164,90 170,92 177,94 184,97 190,99 197,102 203,104 210,107 216,109 223,112 230,114 236,116 243,118 250,119 257,121 264,121 271,122 278,122 285,121 291,120 298,118 305,115 311,112 317,108 322,104 327,99 332,94 336,88 339,82 343,76 346,70 349,63 352,57 354,50 357,44 359,37 362,31 365,24 367,18 370,11 373,5 376,-1 379,-8 382,-14 386,-20 390,-26" fill="none" stroke="#59adef" stroke-width="1.16" stroke-opacity="0.20" stroke-linecap="round"/>
<polyline points="267,120 274,120 281,120 288,119 295,117 302,115 308,112 314,108 320,104 325,99 330,94 334,89 338,83 341,77 345,71 348,64 350,58 353,51 356,45 358,38 361,32 364,25 366,19 369,13 372,6 375,-0 378,-6 382,-13 385,-19 389,-25 393,-30 397,-36 401,-42 406,-47" fill="none" stroke="#5aadef" stroke-width="1.21" stroke-opacity="0.26" stroke-linecap="round"/>
<polyline points="78,59 85,59 92,60 99,60 106,61 113,62 120,63 127,65 134,66 141,68 147,70 154,72 161,74 167,76 174,79 180,81 187,84 193,86 200,89 206,92 213,94 220,96 226,99 233,101 240,103 246,104 253,106 260,107 267,107 274,107 281,107 288,106 295,104 302,102 308,99 314,96 320,91 325,87 330,82 334,76 338,70 342,65 345,58 349,52 352,46 355,40 358,33 360,27 363,21 366,14 369,8 373,2 376,-5 379,-11 383,-17 386,-23 390,-29 394,-34 399,-40 403,-45" fill="none" stroke="#5aadee" stroke-width="1.11" stroke-opacity="0.32" stroke-linecap="round"/>
<polyline points="486,162 479,160 472,158 466,156 459,153 453,151 446,148 440,145 434,141 428,138 422,134 416,130 411,125 406,120 402,115 398,109 394,103 391,97 388,90 386,84 384,77 382,70 381,63 380,56 380,49 380,42 380,35 381,28 382,21 383,15 385,8 387,1 389,-5 392,-12 395,-18 398,-25 401,-31 405,-37 409,-42 414,-48" fill="none" stroke="#5aadee" stroke-width="1.49" stroke-opacity="0.39" stroke-linecap="round"/>
<polyline points="194,102 201,105 207,107 214,110 221,112 227,114 234,117 241,119 247,120 254,122 261,123 268,123 275,123 282,123 289,122 296,120 302,118 309,115 315,111 320,107 325,102 330,97 334,92 338,86 342,80 345,73 348,67 350,61 353,54 356,48 358,41 361,35 363,28 366,22 369,15 371,9 374,2 377,-4 381,-10 384,-16 388,-22 391,-28 395,-34 400,-40 404,-45" fill="none" stroke="#5badee" stroke-width="1.60" stroke-opacity="0.20" stroke-linecap="round"/>
<polyline points="528,146 521,143 515,141 508,139 501,137 495,135 488,133 481,132 474,130 468,128 461,125 455,123 448,120 442,117 436,114 430,110 424,106 419,102 414,97 409,92 405,86 401,80 398,74 395,67 393,61 391,54 390,47 389,40 389,33 389,26 389,19 390,12 392,5 393,-1 395,-8 398,-15 401,-21 404,-27 407,-33 411,-39 415,-45" fill="none" stroke="#5baced" stroke-width="1.35" stroke-opacity="0.40" stroke-linecap="round"/>
<polyline points="556,115 550,111 545,107 539,103 533,98 528,94 523,90 517,85 512,80 507,75 503,70 498,65 494,59 490,53 487,47 484,40 482,34 481,27 480,20 480,13 480,6 482,-1 484,-8 487,-14 490,-20 495,-25 500,-30 505,-34 512,-37 519,-39 525,-40 532,-41 539,-40 546,-39 553,-37 560,-35 566,-33 573,-30 579,-28 586,-25 592,-22 599,-20 605,-17 612,-15 619,-13 625,-11 632,-9 639,-7 646,-6 653,-4 659,-3 666,-2 673,-1 680,0 687,1 694,2 701,2 708,3 715,3 722,4 729,4 736,4 743,4 750,4 757,4 764,4 771,4 778,4 785,3 792,3" fill="none" stroke="#5bacec" stroke-width="1.34" stroke-opacity="0.20" stroke-linecap="round"/>
<polyline points="391,147 388,141 385,135 383,128 380,121 378,115 377,108 375,101 374,94 373,87 372,80 372,73 371,66 372,59 372,52 373,45 373,38 375,32 376,25 378,18 380,11 382,5 384,-2 387,-9 390,-15 393,-21 396,-27 400,-33 404,-39 408,-44 413,-50" fill="none" stroke="#5cacec" stroke-width="1.56" stroke-opacity="0.38" stroke-linecap="round"/>
<polyline points="628,42 633,37 639,33 645,29 652,27 658,24 665,22 672,21 679,20 686,19 693,18 700,17 707,17 714,16 721,16 728,15 735,15 741,15 748,14 755,14 762,14 769,14 776,14 783,13 790,13 797,13 804,13 811,13 818,13 825,13 832,13 839,13 846,13 853,13 860,13 867,14 874,14 881,15 888,16 895,18 902,20 909,22 915,24 922,27 928,30 934,33 940,36 947,40 953,43 959,46 965,49" fill="none" stroke="#5cacec" stroke-width="0.96" stroke-opacity="0.20" stroke-linecap="round"/>
<polyline points="563,152 557,149 550,145 544,142 538,139 531,137 525,134 518,132 512,129 505,127 498,125 492,123 485,121 478,119 472,117 465,114 458,112 452,109 446,106 440,102 434,98 428,94 423,90 418,85 413,79 409,74 406,68 403,61 400,55 398,48 397,41 396,34 395,27 395,20 396,13 397,6 398,-0 400,-7 402,-14 404,-20 407,-27 411,-33 414,-39 419,-44 423,-50" fill="none" stroke="#5caceb" stroke-width="1.12" stroke-opacity="0.14" stroke-linecap="round"/>
<polyline points="-20,102 -13,103 -6,105 1,106 8,106 15,106 22,105 29,105 36,104 43,103 50,102 57,102 64,101 70,100 77,100 84,100 91,100 98,100 105,100 112,101 119,101 126,102 133,104 140,105 147,107 154,109 160,111 167,113 174,115 180,118 187,120 193,123 200,125 206,128 213,130 219,133 226,136 232,138 239,140 246,142 252,144 259,145 266,146 273,147 280,147 287,147 294,145 301,144 307,141 314,138 319,134 325,129 329,124 334,119 337,113 341,107 344,100 346,94 349,87 351,80 353,74 355,67 357,60 359,54 361,47 363,40 365,34 367,27 369,20 372,14" fill="none" stroke="#5caceb" stroke-width="1.40" stroke-opacity="0.41" stroke-linecap="round"/>
<polyline points="278,-22 285,-19 291,-17 298,-15 305,-14 312,-13 319,-14 326,-15 332,-17 339,-20 345,-23 351,-26 357,-30 363,-34 369,-38 374,-42 380,-46" fill="none" stroke="#5dacea" stroke-width="0.93" stroke-opacity="0.22" stroke-linecap="round"/>
<polyline points="280,-23 286,-20 293,-18 299,-16 306,-15 313,-15 320,-16 327,-17 334,-19 340,-21 347,-25 353,-28 359,-32 365,-36 370,-40 376,-44 381,-48" fill="none" stroke="#5dabea" stroke-width="0.72" stroke-opacity="0.40" stroke-linecap="round"/>
<polyline points="801,100 808,99 815,98 822,99 829,100 835,102 842,104 848,107 854,110 860,114 866,118 871,123 876,127 881,133 886,138 890,143 894,149 898,155 902,160 906,166 910,172 914,178 918,184 922,189 926,195" fill="none" stroke="#5dabea" stroke-width="1.56" stroke-opacity="0.24" stroke-linecap="round"/>
<polyline points="312,-17 319,-18 326,-19 333,-21 340,-23 346,-26 352,-29 358,-33 364,-37 370,-41 376,-45 381,-49" fill="none" stroke="#5dabe9" stroke-width="0.82" stroke-opacity="0.42" stroke-linecap="round"/>
<polyline points="581,50 584,43 588,38 593,32 598,28 604,24 610,21 617,19 623,17 630,15 637,14 644,13 651,12 658,12 665,12 672,11 679,11 686,11 693,11 700,11 707,11 714,11 721,11 728,11 735,11 742,10 749,10 756,10 763,10 770,10 777,10 784,9 791,9 798,9 805,9 812,8 819,8 826,8 833,7 840,7 847,7 854,6 861,6 868,6 875,6 882,6 889,6 896,6 903,7 910,7 917,8 924,10 931,11 938,12 944,13 951,14 958,15 965,15" fill="none" stroke="#5eabe9" stroke-width="1.32" stroke-opacity="0.32" stroke-linecap="round"/>
<polyline points="417,174 413,168 408,163 404,157 400,152 396,146 392,140 389,134 386,127 384,121 381,114 379,108 377,101 376,94 375,87 374,80 373,73 373,66 373,59 373,52 373,45 374,38 375,31 377,24 378,18 380,11 382,4 385,-2 387,-9 390,-15 393,-21 397,-28 401,-33 405,-39 409,-45 414,-50" fill="none" stroke="#5eabe8" stroke-width="0.78" stroke-opacity="0.33" stroke-linecap="round"/>
<polyline points="304,28 311,26 317,24 324,21 330,17 335,13 341,9 346,5 351,-0 356,-5 361,-10 366,-16 370,-21 375,-26 380,-31 384,-36 389,-41 394,-46" fill="none" stroke="#5eabe8" stroke-width="1.32" stroke-opacity="0.35" stroke-linecap="round"/>
<polyline points="820,117 827,118 834,119 841,120 848,123 854,126 860,129 866,133 872,137 877,142 882,147 887,152 891,157 896,162 900,168 905,173 909,179 913,185 917,190 921,196" fill="none" stroke="#5fabe8" stroke-width="0.99" stroke-opacity="0.21" stroke-linecap="round"/>
<polyline points="-35,92 -29,94 -22,96 -15,98 -9,100 -2,101 5,102 12,102 19,102 26,102 33,101 40,100 47,100 54,99 61,98 68,98 75,97 82,97 89,97 96,97 103,97 110,98 117,99 124,100 131,101 138,102 145,104 151,106 158,108 165,110 171,112 178,114 184,117 191,119 198,122 204,125 211,127 217,130 224,132 230,135 237,137 243,139 250,141 257,142 264,143 271,144 278,144 285,144 292,143 299,141 305,139 312,136 317,132 323,128 328,123 332,117 336,111 340,105 343,99 346,93 348,86 350,80 353,73 355,66 357,59 359,53 361,46 363,39 365,33 367,26" fill="none" stroke="#5faae7" stroke-width="0.89" stroke-opacity="0.36" stroke-linecap="round"/>
<polyline points="906,9 913,10 920,12 927,13 934,15 941,16 947,18 954,19 961,20 968,21" fill="none" stroke="#5faae7" stroke-width="0.92" stroke-opacity="0.39" stroke-linecap="round"/>
<polyline points="-28,23 -21,26 -15,29 -8,31 -2,34 5,35 12,37 19,38 26,39 33,39 40,40 47,40 54,40 61,40 68,40 75,40 82,40 89,41 96,41 103,42 109,43 116,44 123,45 130,47 137,48 144,50 150,52 157,54 164,57 170,59 177,62 183,64 190,67 196,70 203,72 209,75 216,78 222,80 229,82 235,84 242,86 249,88 256,89 263,90 270,90 277,90 284,90 291,88 297,87 304,84 310,81 316,77 322,73 327,69 332,63 336,58 341,52 344,47 348,41 352,35 355,29 358,22 362,16 365,10 369,4 372,-2 375,-8 379,-14 383,-20 387,-26" fill="none" stroke="#5faae6" stroke-width="1.29" stroke-opacity="0.37" stroke-linecap="round"/>
<polyline points="519,134 512,131 506,129 499,127 492,125 486,123 479,121 472,119 466,117 459,114 453,111 446,108 440,105 434,101 429,97 423,93 418,88 413,83 409,77 406,71 402,65 400,58 398,52 396,45 395,38 394,31 394,24 394,17 395,10 396,3 398,-4 400,-10 402,-17 405,-23 408,-30 412,-36 416,-42 420,-47" fill="none" stroke="#60aae6" stroke-width="0.85" stroke-opacity="0.23" stroke-linecap="round"/>
<polyline points="395,69 393,62 391,56 390,49 389,42 388,35 388,28 389,21 390,14 391,7 393,0 395,-7 397,-13 400,-20 403,-26 406,-32 410,-38 414,-44 419,-49" fill="none" stroke="#60aae6" stroke-width="1.14" stroke-opacity="0.37" stroke-linecap="round"/>
<polyline points="73,39 80,39 87,40 94,40 101,41 108,41 115,43 122,44 129,45 136,47 142,49 149,51 156,53 162,55 169,58 175,60 182,63 188,66 195,68 201,71 208,74 214,76 221,79 227,81 234,83 241,85 248,87 255,88 261,89 268,89 275,89 282,89 289,88 296,86 303,84 309,81 315,77 321,73 326,69 331,64 336,58 340,53 344,47 348,41 351,35 355,29 358,23 361,17 365,11 368,4 371,-2 375,-8 379,-14 382,-20 386,-25 390,-31 394,-37 399,-42 404,-47" fill="none" stroke="#60aae5" stroke-width="1.60" stroke-opacity="0.29" stroke-linecap="round"/>
<polyline points="567,53 568,46 571,39 574,33 579,28 584,24 590,20 597,17 603,15 610,13 617,12 624,11 631,10 638,9 645,9 652,9 659,9 666,9 673,9 680,9 687,9 694,9 701,9 708,9 715,9 722,9 729,9 736,9 743,9 750,9 757,9 764,9 771,9 778,9 785,8 792,8 799,8 806,7 813,7 820,7 827,6 834,6 841,5 848,5 855,4 862,4 868,3 875,3 882,3 889,3 896,2 903,3 910,3 917,4 924,4 931,5 938,5 945,6 952,6 959,6 966,5" fill="none" stroke="#60aae5" stroke-width="1.34" stroke-opacity="0.25" stroke-linecap="round"/>
<polyline points="519,2 524,-3 529,-8 534,-12 541,-16 547,-18 554,-19 561,-20 568,-20 575,-19 582,-18 589,-16 596,-15 602,-13 609,-11 616,-10 623,-8 630,-7 636,-5 643,-4 650,-3 657,-2 664,-1 671,0 678,1 685,2 692,3 699,3 706,4 713,4 720,4 727,5 734,5 741,5 748,5 755,5 762,5 769,5 776,4 783,4 790,4 797,3 804,3 811,2 818,1 825,1 832,-0 838,-1 845,-2 852,-3 859,-5 866,-6 873,-7 880,-9 887,-10 893,-12 900,-13 907,-15 914,-17 921,-18 927,-20 934,-23 940,-25 947,-28 953,-32 958,-36 964,-41 969,-46" fill="none" stroke="#61a9e4" stroke-width="1.21" stroke-opacity="0.26" stroke-linecap="round"/>
<polyline points="696,129 694,122 692,115 692,108 691,101 691,94 692,87 694,81 697,74 701,68 705,63 710,58 716,54 722,50 728,47 735,44 741,42 748,40 755,39 762,38 769,37 776,36 783,36 790,36 797,36 804,36 811,37 818,37 825,38 832,39 838,41 845,43 852,45 858,47 865,50 871,54 877,57 882,61 888,66 893,71 897,76 902,82 906,88 909,94 912,100 915,106 918,113 921,119 923,126 926,132 928,139 931,145 933,152 936,158 938,165 941,171 944,178 947,184 950,190 953,197" fill="none" stroke="#61a9e4" stroke-width="1.29" stroke-opacity="0.17" stroke-linecap="round"/>
<polyline points="64,177 70,174 77,172 84,170 91,168 97,167 104,166 111,166 118,166 125,167 132,167 139,169 146,170 153,172 159,174 166,177 172,180 179,183 185,186 191,189 197,193 203,197" fill="none" stroke="#61a9e3" stroke-width="1.37" stroke-opacity="0.16" stroke-linecap="round"/>
<polyline points="714,26 721,25 728,24 735,23 742,23 749,22 756,22 763,21 770,21 777,21 784,20 791,20 798,20 805,20 812,20 819,21 826,21 833,22 840,22 846,23 853,24 860,25 867,27 874,29 881,31 887,33 893,36 900,39 906,43 911,47 916,52 921,57 926,62 931,67 935,73 939,78 943,84 947,90 951,96 955,102 958,108 962,114 965,120 969,126" fill="none" stroke="#62a9e3" stroke-width="1.35" stroke-opacity="0.42" stroke-linecap="round"/>
<polyline points="371,57 371,50 372,43 373,36 375,29 376,22 378,15 380,9 382,2 385,-5 388,-11 391,-17 394,-23 397,-30 401,-35 405,-41 410,-46" fill="none" stroke="#62a9e2" stroke-width="1.09" stroke-opacity="0.28" stroke-linecap="round"/>
<polyline points="200,98 206,100 213,103 220,105 226,107 233,109 240,111 246,113 253,114 260,115 267,116 274,116 281,116 288,115 295,113 301,111 308,108 314,104 320,100 325,96 329,90 334,85 338,79 341,73 345,67 348,61 351,54 353,48 356,42 359,35 362,29 364,22 367,16 370,9 373,3 376,-3 379,-9 383,-15 386,-22 390,-27 394,-33 398,-39 403,-44 408,-49" fill="none" stroke="#63a8e1" stroke-width="1.41" stroke-opacity="0.36" stroke-linecap="round"/>
<polyline points="166,141 173,143 179,146 186,148 192,151 199,154 205,157 211,160 218,163 224,166 230,169 237,172 243,175 250,177 256,179 263,181 270,183 277,184 284,185 291,185 298,184 304,183 311,181 318,178 323,174 329,170 334,165 338,159 342,153 345,147 348,141 350,134 352,127 353,120 355,114 356,107 357,100 358,93 359,86 360,79 361,72 362,65 363,58 365,51 366,44 368,38 369,31 371,24 373,17 376,11 378,4 381,-2 384,-9 387,-15 390,-21 394,-27 397,-33 402,-39 406,-44 411,-49" fill="none" stroke="#63a8e1" stroke-width="1.37" stroke-opacity="0.27" stroke-linecap="round"/>
<polyline points="768,47 775,46 782,45 789,45 796,45 803,45 810,45 817,46 824,47 831,49 838,51 844,53 851,55 857,58 863,61 869,65 875,69 880,74 885,79 890,84 894,90 898,95 902,101 905,107 908,114 911,120 914,127 916,133 919,140 922,146 924,153 927,159 930,165 933,172 936,178 939,184 942,191 945,197" fill="none" stroke="#63a8e1" stroke-width="1.43" stroke-opacity="0.23" stroke-linecap="round"/>
<polyline points="550,141 544,138 537,135 531,133 524,130 518,127 511,125 504,123 498,121 491,118 485,116 478,114 471,111 465,109 458,106 452,103 446,100 440,96 434,92 429,88 424,83 419,78 415,72 411,66 407,60 405,54 402,47 401,40 399,34 399,27 399,20 399,13 400,6 401,-1 403,-8 405,-15 407,-21 410,-28 413,-34 417,-40 421,-45" fill="none" stroke="#64a8e0" stroke-width="0.96" stroke-opacity="0.37" stroke-linecap="round"/>
<polyline points="779,81 786,79 793,78 800,77 807,77 814,77 821,78 827,80 834,81 841,84 847,87 853,90 859,94 865,98 870,103 875,108 880,113 884,118 888,124 892,130 896,135 900,141 903,147 907,154 910,160 914,166 917,172 921,178 924,184 928,190 931,196" fill="none" stroke="#64a8df" stroke-width="0.79" stroke-opacity="0.23" stroke-linecap="round"/>
<polyline points="839,119 845,121 852,124 858,127 864,131 870,135 875,139 880,144 885,149 890,154 894,160 899,165 903,171 907,176 911,182 915,187 920,193 924,199" fill="none" stroke="#64a8df" stroke-width="1.33" stroke-opacity="0.15" stroke-linecap="round"/>
<polyline points="846,13 853,13 860,14 867,14 874,15 881,16 888,17 895,18 902,20 908,22 915,25 921,27 927,30 934,34 940,37 946,40 952,44 958,47 964,50" fill="none" stroke="#64a7df" stroke-width="1.07" stroke-opacity="0.15" stroke-linecap="round"/>
<polyline points="499,174 492,172 486,169 479,166 473,164 466,161 459,159 453,156 447,153 440,150 434,147 428,143 422,139 417,135 412,130 407,125 402,120 398,114 394,109 391,102 388,96 385,90 383,83 382,76 380,69 379,62 379,55 378,48 379,41 379,34 380,27 381,20 383,14 384,7 387,0 389,-6 392,-13 394,-19 398,-25 401,-31 405,-37 409,-43 414,-48" fill="none" stroke="#65a7de" stroke-width="1.36" stroke-opacity="0.23" stroke-linecap="round"/>
<polyline points="277,11 284,13 291,13 298,14 305,13 312,12 319,10 325,8 331,5 338,1 343,-3 349,-7 354,-12 359,-16 365,-21 370,-26 374,-31 379,-36 384,-41 390,-46" fill="none" stroke="#65a7de" stroke-width="1.55" stroke-opacity="0.41" stroke-linecap="round"/>
<polyline points="534,63 532,56 530,49 530,42 530,35 531,29 533,22 537,16 541,10 546,5 552,1 558,-2 565,-4 571,-6 578,-7 585,-7 592,-7 599,-6 606,-6 613,-5 620,-4 627,-3 634,-2 641,-1 648,-0 655,1 662,1 669,2 676,3 683,4 690,4 697,5 704,5 711,5 718,6 725,6 732,6 739,6 746,6 753,6 760,6 767,6 774,6 781,5 788,5 795,5 802,4 809,4 815,3 822,2 829,2 836,1 843,-0 850,-1 857,-2 864,-3 871,-4 878,-5 885,-6 892,-8 899,-9 906,-10 912,-11 919,-12 926,-13 933,-14 940,-16 947,-18 953,-21 960,-24" fill="none" stroke="#66a7dd" stroke-width="1.16" stroke-opacity="0.40" stroke-linecap="round"/>
<polyline points="517,37 517,30 518,23 520,17 523,10 527,4 532,-1 537,-5 543,-9 549,-12 556,-14 563,-15 570,-15 577,-15 584,-14 591,-13 598,-12 605,-11 612,-9 618,-8 625,-6 632,-5 639,-4 646,-3 653,-2 660,-0 667,0 674,1 681,2 688,3 695,3 702,4 709,4 716,5 722,5 729,5 736,5 743,5 750,5 757,5 764,5 771,5 778,5 785,4 792,4 799,3 806,3 813,2 820,1 827,1 834,-0 841,-1 848,-2 855,-3 862,-4 869,-6 876,-7 883,-8 889,-10 896,-11 903,-13 910,-14 917,-16 924,-17 930,-19 937,-21 943,-24 950,-27 956,-31 962,-35" fill="none" stroke="#66a7dd" stroke-width="0.84" stroke-opacity="0.20" stroke-linecap="round"/>
<polyline points="155,87 162,90 169,92 175,94 182,97 188,99 195,102 201,104 208,107 215,109 221,112 228,114 234,116 241,118 248,120 255,121 262,122 269,122 276,123 283,122 290,121 296,119 303,117 309,114 315,110 321,106 326,101 330,96 335,90 338,84 342,78 345,72 348,66 351,59 353,53 356,46 358,40 361,33 364,27 366,20 369,14 372,7 375,1 378,-5 381,-11 385,-18 388,-24 392,-29 396,-35 400,-41 405,-46" fill="none" stroke="#66a6dc" stroke-width="1.21" stroke-opacity="0.44" stroke-linecap="round"/>
<polyline points="-34,114 -27,115 -20,116 -13,117 -6,118 1,118 8,117 15,117 22,116 29,115 36,114 43,113 50,111 56,110 63,109 70,108 77,108 84,107 91,107 98,107 105,107 112,108 119,108 126,109 133,111 140,112 147,114 154,115 160,117 167,120 174,122 180,124 187,127 193,129 200,132 206,135 212,137 219,140 225,143 232,145 239,148 245,150 252,152 259,153 266,154 273,155 280,156 287,155 294,154 300,153 307,150 313,147 319,143 325,139 329,134 334,128 338,123 341,116 344,110 347,104 349,97 351,90 353,84 355,77 356,70 358,63 360,56 361,50 363,43 365,36" fill="none" stroke="#66a6dc" stroke-width="0.95" stroke-opacity="0.26" stroke-linecap="round"/>
<polyline points="493,64 488,59 485,53 481,47 478,41 476,34 474,27 473,20 472,13 473,6 474,-1 475,-7 478,-14 481,-20 485,-26 489,-31 495,-36 501,-39 507,-42 514,-44 521,-45 528,-45 535,-44 542,-43 548,-41 555,-39 562,-37 568,-34 574,-31 581,-28 587,-25 594,-23 600,-20 607,-17 613,-15 620,-13 627,-11 633,-9 640,-7 647,-6 654,-4 661,-3 668,-2 674,-1 681,0 688,1 695,2 702,2 709,3 716,3 723,4 730,4 737,4 744,4 751,4 758,4 765,4 772,4 779,3 786,3 793,3 800,2 807,1 814,1 821,-0 828,-1 835,-2 842,-3 849,-4 856,-6" fill="none" stroke="#67a6db" stroke-width="1.49" stroke-opacity="0.22" stroke-linecap="round"/>
<polyline points="896,57 901,62 906,67 910,73 914,78 918,84 921,90 925,96 928,103 930,109 933,116 936,122 938,129 941,135 943,142 945,148 948,155 950,161 953,168 956,174 958,181 961,187 964,194 967,200" fill="none" stroke="#67a6db" stroke-width="0.83" stroke-opacity="0.16" stroke-linecap="round"/>
<polyline points="911,129 914,136 917,142 919,149 922,155 925,162 928,168 931,174 934,181 937,187 940,193 944,199" fill="none" stroke="#67a6da" stroke-width="1.54" stroke-opacity="0.20" stroke-linecap="round"/>
<polyline points="814,105 821,105 828,106 835,107 842,110 848,112 855,115 861,119 866,123 872,128 877,133 882,138 886,143 891,148 895,154 899,159 903,165 907,171 911,177 915,182 919,188 923,194 927,200" fill="none" stroke="#68a6da" stroke-width="1.54" stroke-opacity="0.32" stroke-linecap="round"/>
<polyline points="56,55 63,55 70,55 77,56 84,56 91,56 98,57 104,58 111,59 118,60 125,61 132,63 139,65 146,66 152,69 159,71 165,73 172,75 179,78 185,80 192,83 198,86 205,88 211,91 218,93 224,95 231,98 238,100 245,101 251,103 258,104 265,104 272,105 279,104 286,104 293,102 300,100 306,97 312,94 318,90 323,85 328,80 333,75 337,70 341,64 345,58 348,51 351,45 354,39 357,33 360,26 363,20 366,14 369,7 372,1 376,-5 379,-11 383,-17 386,-23 390,-29 394,-35 399,-40 403,-45" fill="none" stroke="#68a5d9" stroke-width="1.27" stroke-opacity="0.41" stroke-linecap="round"/>
<polyline points="378,166 377,159 376,153 375,146 373,139 372,132 371,125 370,118 370,111 369,104 368,97 368,90 368,83 368,76 368,69 368,62 369,55 370,48 371,41 372,34 374,27 375,21 377,14 379,7 382,1 384,-6 387,-12 390,-18 394,-25 397,-30 401,-36 406,-42 410,-47" fill="none" stroke="#68a5d9" stroke-width="0.70" stroke-opacity="0.15" stroke-linecap="round"/>
<polyline points="477,146 470,144 463,142 457,140 450,137 444,135 437,131 431,128 425,124 420,120 414,116 409,111 405,106 401,100 397,94 393,88 391,81 388,75 386,68 385,61 384,54 383,47 383,40 383,33 384,26 385,20 386,13 387,6 389,-1 392,-7 394,-14 397,-20 400,-27 404,-33 408,-38 412,-44 416,-49" fill="none" stroke="#68a5d9" stroke-width="1.01" stroke-opacity="0.34" stroke-linecap="round"/>
<polyline points="291,-16 298,-14 304,-13 311,-13 318,-13 325,-15 332,-17 339,-19 345,-22 351,-25 357,-29 363,-33 368,-37 374,-41 380,-46" fill="none" stroke="#69a5d8" stroke-width="1.09" stroke-opacity="0.15" stroke-linecap="round"/>
<polyline points="685,11 692,11 699,11 706,11 713,11 720,11 727,11 734,11 741,10 748,10 755,10 762,10 769,10 776,10 783,9 790,9 797,9 804,9 811,8 818,8 825,8 832,7 839,7 846,6 853,6 860,6 867,6 874,5 881,5 888,6 895,6 902,6 909,7 916,8 923,9 930,10 937,12 944,13 951,14 958,14 965,15" fill="none" stroke="#69a5d8" stroke-width="1.05" stroke-opacity="0.31" stroke-linecap="round"/>
<polyline points="796,31 803,31 810,32 817,32 824,33 831,34 838,35 844,37 851,39 858,41 864,43 871,46 877,49 883,53 889,57 894,62 899,67 903,72 908,78 912,83 915,89 918,96 921,102 924,108 927,115 930,121 932,128 934,134 937,141 939,148 942,154 944,161 947,167 949,174 952,180 955,186 958,193 961,199" fill="none" stroke="#69a5d7" stroke-width="0.77" stroke-opacity="0.20" stroke-linecap="round"/>
<polyline points="244,88 251,89 258,90 265,91 272,91 279,91 286,90 292,89 299,87 306,84 312,81 318,77 323,73 328,68 333,63 337,58 341,52 345,46 349,40 352,34 356,28 359,22 362,16 366,9 369,3 373,-3 376,-9 380,-15 383,-21 387,-27 391,-32 396,-38 400,-43 405,-48" fill="none" stroke="#6aa4d7" stroke-width="1.30" stroke-opacity="0.33" stroke-linecap="round"/>
<polyline points="22,120 29,119 36,117 43,116 50,115 57,113 64,112 70,112 77,111 84,110 91,110 98,110 105,110 112,110 119,111 126,112 133,113 140,115 147,116 154,118 160,120 167,122 174,124 180,127 187,129 193,132 200,135 206,137 213,140 219,143 225,145 232,148 239,150 245,153 252,155 259,156 266,158 273,158 280,159 287,159 294,158 300,156 307,154 313,151 319,147 325,143 330,138 334,132 338,126 341,120 344,114 347,107 349,101 351,94 353,87 354,80 356,74 358,67 359,60 361,53 363,46 365,40 366,33 369,26 371,20 373,13 376,7 378,0 381,-6 384,-13" fill="none" stroke="#6aa4d6" stroke-width="1.30" stroke-opacity="0.22" stroke-linecap="round"/>
<polyline points="206,8 212,11 218,15 224,18 230,21 236,24 243,27 249,30 256,32 263,34 269,36 276,37 283,37 290,37 297,36 304,35 311,33 317,30 324,27 330,24 335,19 341,15 346,10 351,5 355,0 360,-5 364,-11 369,-16 373,-21 378,-27 382,-32 387,-37 392,-42 397,-47" fill="none" stroke="#6aa4d6" stroke-width="1.30" stroke-opacity="0.39" stroke-linecap="round"/>
<polyline points="236,151 243,154 249,156 256,158 263,159 270,160 277,161 284,161 291,160 298,159 305,157 311,154 317,151 323,147 328,142 332,137 336,131 340,125 343,119 346,112 348,105 350,99 352,92 354,85 355,78 357,72 359,65 360,58 362,51 364,44 365,38 367,31 369,24 372,18 374,11 377,5 379,-2 382,-8 386,-14 389,-21 393,-27 396,-32 400,-38 405,-44 409,-49" fill="none" stroke="#6ba4d5" stroke-width="1.17" stroke-opacity="0.26" stroke-linecap="round"/>
<polyline points="617,141 612,136 607,131 602,126 597,121 592,116 587,111 583,106 579,100 575,95 571,89 568,82 565,76 563,69 562,62 562,55 563,48 565,41 568,35 572,29 576,24 582,20 588,17 595,14 601,12 608,11 615,10 622,9 629,8 636,8 643,8 650,8 657,8 664,8 671,8 678,8 685,8 692,9 699,9 706,9 713,9 720,9 727,9 734,9 741,9 748,9 755,9 762,9 769,8 776,8 783,8 790,8 797,7 804,7 811,7 818,6 825,6 832,5 839,5 846,4 853,4 860,3 867,3 874,2 881,2 888,1 895,1 902,1 909,1 916,2" fill="none" stroke="#6ca3d4" stroke-width="0.95" stroke-opacity="0.24" stroke-linecap="round"/>
<polyline points="877,150 882,155 887,159 892,164 897,170 901,175 906,180 910,186 915,191 919,197" fill="none" stroke="#6ca3d3" stroke-width="0.71" stroke-opacity="0.34" stroke-linecap="round"/>
<polyline points="575,166 569,162 564,158 558,154 552,151 545,148 539,145 533,142 526,139 519,137 513,135 506,133 499,131 493,129 486,127 479,125 473,123 466,121 459,118 453,116 446,113 440,109 434,106 428,102 423,98 418,93 413,88 409,82 405,76 401,70 399,64 396,57 394,51 393,44 392,37 392,30 392,23 392,16 393,9 395,2 397,-5 399,-11 401,-18 404,-24 407,-31 411,-37 415,-42 419,-48" fill="none" stroke="#6ca3d3" stroke-width="1.29" stroke-opacity="0.41" stroke-linecap="round"/>
<polyline points="-5,126 2,126 9,125 16,124 23,123 30,121 36,120 43,118 50,117 57,116 64,115 71,114 78,113 85,112 92,112 99,112 106,112 113,112 120,113 127,114 134,115 141,117 147,118 154,120 161,122 167,124 174,126 181,129 187,131 194,134 200,137 207,140 213,142 219,145 226,148 232,150 239,153 246,155 252,157 259,159 266,160 273,161 280,161 287,161 294,160 301,159 307,156 314,153 320,150 325,145 330,140 334,135 338,129 341,123 344,116 347,110 349,103 351,96 353,90 355,83 356,76 358,69 359,62 361,56 362,49 364,42 366,35 368,29 370,22 373,15" fill="none" stroke="#6ca3d2" stroke-width="1.01" stroke-opacity="0.28" stroke-linecap="round"/>
<polyline points="221,24 227,27 233,30 240,33 246,35 253,38 260,39 267,41 274,42 281,42 288,42 294,42 301,41 308,39 315,36 321,33 327,29 333,25 338,21 343,16 348,11 353,6 357,1 362,-5 366,-10 370,-16 375,-21 379,-27 384,-32 388,-37 393,-43 398,-48" fill="none" stroke="#6da3d2" stroke-width="0.94" stroke-opacity="0.37" stroke-linecap="round"/>
<polyline points="514,108 508,104 502,101 495,98 489,95 483,91 477,88 471,84 465,80 460,76 455,71 449,66 445,61 440,56 437,50 433,44 430,37 428,31 426,24 425,17 425,10 424,3 425,-4 426,-11 428,-18 430,-24 433,-31 436,-37 440,-43 445,-48" fill="none" stroke="#6da3d2" stroke-width="0.84" stroke-opacity="0.26" stroke-linecap="round"/>
<polyline points="-46,-1 -40,1 -33,4 -27,7 -20,9 -13,11 -7,13 0,14 7,15 14,16 21,16 28,16 35,16 42,15 49,15 56,14 63,13 70,12 77,12 84,11 91,11 98,10 105,10 112,11 119,11 126,12 133,13 139,15 146,17 153,19 160,21 166,23 173,26 179,29 185,32 192,35 198,38 204,41 211,44 217,47 224,49 230,52 237,54 243,56 250,58 257,60 264,61 271,62 278,62 285,62 292,61 298,59 305,57 312,54 318,51 324,47 329,43 334,38 339,33 344,28 348,23 352,17 357,11 361,6 364,-0 368,-6 372,-12 376,-18 380,-23 385,-29" fill="none" stroke="#6da3d1" stroke-width="0.97" stroke-opacity="0.21" stroke-linecap="round"/>
<polyline points="909,-17 916,-18 922,-20 929,-23 936,-25 942,-28 948,-32 954,-35 959,-40 964,-45" fill="none" stroke="#6ea2d1" stroke-width="1.44" stroke-opacity="0.25" stroke-linecap="round"/>
<polyline points="322,89 327,84 332,79 336,74 340,68 343,62 347,56 350,49 353,43 356,37 359,30 362,24 365,18 368,11 371,5 374,-1 377,-7 381,-13 384,-19 388,-25 392,-31 396,-37 401,-42 405,-47" fill="none" stroke="#6ea2d0" stroke-width="1.14" stroke-opacity="0.41" stroke-linecap="round"/>
<polyline points="541,142 535,140 528,137 522,134 515,132 508,130 502,128 495,126 488,124 482,122 475,120 468,117 462,115 455,112 449,109 443,106 437,103 431,99 425,94 420,90 415,85 411,79 407,73 404,67 401,61 398,54 397,48 395,41 394,34 394,27 394,20 395,13 396,6 397,-1 399,-8 401,-14 404,-21 407,-27 410,-33 414,-39 418,-45" fill="none" stroke="#6ea2d0" stroke-width="1.42" stroke-opacity="0.35" stroke-linecap="round"/>
<polyline points="454,174 448,170 442,167 436,163 430,159 424,155 419,151 414,146 409,141 404,136 400,130 396,125 392,119 389,112 386,106 383,100 381,93 379,86 378,79 377,72 376,65 376,58 376,51 376,44 377,37 378,30 379,24 380,17 382,10 384,3 386,-3 389,-10 392,-16 395,-23 398,-29 402,-35 406,-40 411,-46" fill="none" stroke="#6ea2d0" stroke-width="0.72" stroke-opacity="0.15" stroke-linecap="round"/>
<polyline points="682,157 678,151 674,145 670,139 667,134 663,128 659,122 656,115 653,109 650,103 648,96 647,89 646,82 647,75 648,68 650,62 653,55 657,50 662,45 668,40 674,37 680,34 686,31 693,29 700,27 707,25 714,24 721,23 727,22 734,22 741,21 748,20 755,20 762,20 769,19 776,19 783,19 790,19 797,19 804,19 811,19 818,19 825,19 832,20 839,20 846,21 853,22 860,23 867,24 874,26 881,28 887,30 894,33 900,36 906,39 912,43 917,47 923,52 928,57 933,62 937,67 942,72 946,78 951,83 955,89 959,95 963,100 967,106" fill="none" stroke="#6fa2cf" stroke-width="0.77" stroke-opacity="0.32" stroke-linecap="round"/>
<polyline points="774,133 779,127 784,123 790,119 796,116 803,113 810,112 817,111 824,111 831,112 838,114 844,116 851,119 857,122 863,126 868,130 874,135 879,139 884,144 888,150 893,155 897,160 901,166 905,172 910,177 914,183 918,189 922,194 926,200" fill="none" stroke="#6fa2cf" stroke-width="0.87" stroke-opacity="0.41" stroke-linecap="round"/>
<polyline points="638,169 633,164 628,159 623,154 618,150 612,145 607,140 602,136 596,131 591,127 586,122 581,117 576,112 571,107 566,102 562,97 557,91 553,85 550,79 547,73 544,67 542,60 541,53 540,46 541,39 542,32 545,26 548,20 553,15 558,10 564,6 571,4 577,2 584,0 591,-0 598,-1 605,-1 612,-1 619,-0 626,0 633,1 640,2 647,2 654,3 661,3 668,4 675,5 682,5 689,5 696,6 703,6 710,6 717,7 724,7 731,7 738,7 745,7 752,7 759,7 766,7 773,6 780,6 787,6 794,6 801,5 808,5 815,4 822,3 829,3 836,2" fill="none" stroke="#6fa1ce" stroke-width="1.52" stroke-opacity="0.32" stroke-linecap="round"/>
<polyline points="30,130 37,128 43,126 50,124 57,123 64,122 71,120 78,119 85,119 92,118 99,118 106,118 113,118 120,119 126,120 133,121 140,122 147,124 154,125 161,127 167,130 174,132 180,134 187,137 193,140 200,143 206,145 213,148 219,151 225,154 232,156 238,159 245,161 252,163 258,165 265,167 272,168 279,169 286,169 293,168 300,167 307,165 313,162 319,158 325,154 330,149 334,144 338,138 342,132 345,126 347,119 349,113 351,106 353,99 354,92 356,85 357,78 359,72 360,65 361,58 363,51 365,44 366,37 368,31 370,24 372,17 375,11 377,4 380,-2 383,-9" fill="none" stroke="#70a1cd" stroke-width="0.77" stroke-opacity="0.40" stroke-linecap="round"/>
<polyline points="178,136 184,139 191,141 197,144 203,147 210,150 216,153 223,156 229,158 235,161 242,163 249,166 255,168 262,170 269,171 276,172 283,172 290,172 297,171 304,170 310,167 316,164 322,160 328,156 332,151 337,145 340,139 343,133 346,127 349,120 351,113 352,107 354,100 355,93 357,86 358,79 359,72 360,65 362,59 363,52 365,45 366,38 368,31 370,25 372,18 375,11 377,5 380,-2 383,-8 386,-14 389,-20 393,-26 397,-32 401,-38 405,-44 410,-49" fill="none" stroke="#70a1cd" stroke-width="1.23" stroke-opacity="0.34" stroke-linecap="round"/>
<polyline points="30,111 37,110 44,109 51,108 57,107 64,106 71,106 78,105 85,105 92,105 99,105 106,105 113,106 120,106 127,107 134,109 141,110 148,112 155,114 161,116 168,118 174,120 181,122 188,125 194,128 201,130 207,133 213,136 220,138 226,141 233,143 240,145 246,148 253,149 260,151 267,152 274,153 281,153 288,152 295,151 301,149 308,147 314,144 320,140 325,135 330,130 334,124 338,118 341,112 344,106 347,99 349,93 351,86 353,79 355,73 357,66 358,59 360,52 362,46 364,39 366,32 368,25 371,19 373,12 376,6 378,-1 381,-7 384,-13 388,-19 391,-25" fill="none" stroke="#71a1cc" stroke-width="1.54" stroke-opacity="0.19" stroke-linecap="round"/>
<polyline points="836,92 842,94 849,97 855,100 861,104 866,109 871,113 876,118 881,123 886,129 890,134 894,140 898,146 901,152 905,158 909,164 912,170 916,176 920,182 923,188 927,194 931,199" fill="none" stroke="#71a1cc" stroke-width="1.04" stroke-opacity="0.29" stroke-linecap="round"/>
<polyline points="368,109 368,102 367,95 367,88 367,81 367,74 367,67 368,60 369,53 370,46 371,39 372,32 374,25 376,19 378,12 380,5 382,-1 385,-8 388,-14 391,-20 395,-26 398,-32 402,-38 407,-44 411,-49" fill="none" stroke="#71a0cb" stroke-width="0.78" stroke-opacity="0.26" stroke-linecap="round"/>
<polyline points="415,68 411,62 408,56 405,50 403,43 402,36 401,29 400,22 400,15 401,8 402,1 403,-6 405,-12 408,-19 410,-25 413,-32 417,-38 421,-43 425,-49" fill="none" stroke="#72a0cb" stroke-width="0.81" stroke-opacity="0.27" stroke-linecap="round"/>
<polyline points="283,43 290,43 297,42 303,41 310,38 317,36 323,32 329,29 334,24 339,20 345,15 349,10 354,5 359,-1 363,-6 367,-12 372,-17 376,-23 380,-28 385,-33 389,-39 394,-44 399,-49" fill="none" stroke="#72a0ca" stroke-width="1.50" stroke-opacity="0.42" stroke-linecap="round"/>
<polyline points="116,152 123,152 130,153 137,154 144,155 151,157 157,159 164,161 171,164 177,166 183,169 190,172 196,176 202,179 208,182 214,186 220,189 226,193 232,197" fill="none" stroke="#72a0ca" stroke-width="1.31" stroke-opacity="0.20" stroke-linecap="round"/>
<polyline points="58,131 65,129 72,128 79,126 86,126 93,125 100,125 107,125 114,125 121,125 128,126 134,127 141,129 148,130 155,132 162,134 168,136 175,139 181,141 188,144 194,147 201,150 207,152 213,155 220,158 226,161 233,164 239,167 246,169 252,171 259,174 266,175 272,177 279,177 286,178 293,177 300,176 307,174 314,172 320,168 325,164 330,159 335,154 339,148 342,142 345,136 348,129 350,123 352,116 353,109 355,102 356,95 357,88 358,81 360,75 361,68 362,61 363,54 365,47 366,40 368,33 370,27 372,20 374,13 377,7 379,0 382,-6 385,-12 389,-19 392,-25" fill="none" stroke="#73a0c9" stroke-width="1.21" stroke-opacity="0.15" stroke-linecap="round"/>
<polyline points="347,98 349,91 351,85 353,78 355,71 357,64 359,58 361,51 362,44 364,37 366,31 369,24 371,17 373,11 376,4 379,-2 382,-8 385,-15 389,-21 392,-27 396,-33 400,-38 404,-44 409,-49" fill="none" stroke="#73a0c9" stroke-width="0.87" stroke-opacity="0.29" stroke-linecap="round"/>
<polyline points="562,29 567,24 572,19 578,15 584,12 591,10 598,8 605,7 611,7 618,6 625,6 632,6 639,6 646,6 653,6 660,6 667,7 674,7 681,7 688,7 695,8 702,8 709,8 716,8 723,8 730,8 737,8 744,8 751,8 758,8 765,8 772,8 779,8 786,7 793,7 800,7 807,6 814,6 821,5 828,5 835,4 842,4 849,3 856,2 863,2 870,1 877,1 884,-0 891,-0 898,-1 905,-1 912,-1 919,-1 926,-1 933,-1 940,-1 947,-1 954,-2 961,-3 968,-4" fill="none" stroke="#739fc8" stroke-width="0.79" stroke-opacity="0.21" stroke-linecap="round"/>
<polyline points="-12,147 -5,146 2,145 9,143 15,141 22,139 29,137 35,135 42,133 49,131 56,129 62,128 69,126 76,125 83,124 90,123 97,123 104,123 111,123 118,123 125,124 132,125 139,126 146,128 152,130 159,132 166,134 172,136 179,139 185,141 192,144 198,147 205,150 211,152 217,155 224,158 230,161 237,164 243,166 250,169 257,171 263,172 270,174 277,175 284,175 291,175 298,174 305,172 311,170 318,167 323,163 329,158 333,153 338,147 341,141 344,135 347,129 349,122 351,115 353,108 354,102 356,95 357,88 358,81 359,74 360,67 362,60 363,53 365,47 366,40" fill="none" stroke="#739fc8" stroke-width="1.33" stroke-opacity="0.44" stroke-linecap="round"/>
<polyline points="283,-17 290,-14 296,-13 303,-12 310,-11 317,-12 324,-13 331,-15 337,-17 344,-20 350,-24 356,-27 362,-31 367,-35 373,-40 378,-44 384,-48" fill="none" stroke="#749fc8" stroke-width="1.12" stroke-opacity="0.17" stroke-linecap="round"/>
<polyline points="892,144 896,150 900,156 904,162 907,167 911,173 915,179 919,185 923,191 927,197" fill="none" stroke="#749fc7" stroke-width="0.95" stroke-opacity="0.21" stroke-linecap="round"/>
<polyline points="293,103 299,101 306,98 312,95 318,91 323,86 328,81 333,76 337,71 341,65 344,59 348,53 351,46 354,40 357,34 360,27 363,21 366,15 369,8 372,2 375,-4 379,-10 382,-16 386,-22 390,-28 394,-34 398,-39 403,-45 407,-50" fill="none" stroke="#749fc7" stroke-width="1.53" stroke-opacity="0.43" stroke-linecap="round"/>
<polyline points="435,19 434,13 433,6 434,-1 434,-8 436,-15 438,-22 440,-28 444,-35 447,-40 452,-46" fill="none" stroke="#759fc6" stroke-width="1.05" stroke-opacity="0.39" stroke-linecap="round"/>
<polyline points="-39,171 -32,170 -25,168 -18,166 -12,164 -5,162 2,160 8,158 15,155 21,153 28,150 34,147 41,145 47,142 54,140 61,138 67,136 74,135 81,134 88,133 95,132 102,132 109,132 116,132 123,132 130,133 137,134 144,136 150,137 157,139 164,141 170,144 177,146 183,149 190,152 196,155 203,158 209,161 215,164 222,167 228,170 234,173 241,176 247,178 254,181 260,183 267,185 274,186 281,187 288,187 295,187 302,186 308,184 315,182 321,179 327,174 332,170 337,164 341,159 344,153 347,146 349,140 351,133 353,126 355,119 356,112 357,106 358,99 359,92 360,85" fill="none" stroke="#759ec6" stroke-width="1.04" stroke-opacity="0.17" stroke-linecap="round"/>
<polyline points="349,142 351,135 353,128 354,121 356,114 357,108 358,101 359,94 360,87 360,80 361,73 362,66 364,59 365,52 366,45 368,38 369,32 371,25 373,18 376,12 378,5 381,-1 384,-8 387,-14 390,-20 393,-26 397,-32 401,-38 406,-43 410,-49" fill="none" stroke="#759ec6" stroke-width="0.90" stroke-opacity="0.37" stroke-linecap="round"/>
</g>
<rect y="124" width="900" height="102" fill="#05060a" fill-opacity="0.86"/>
<line x1="0" y1="150" x2="900" y2="150" stroke="#1a1e28"/>
<text x="51" y="184" font-family="ui-monospace,'Cascadia Code',Consolas,'DejaVu Sans Mono',monospace" font-size="22" fill="#4fb3ff" font-weight="600">46</text>
<text x="51" y="206" font-family="ui-monospace,'Cascadia Code',Consolas,'DejaVu Sans Mono',monospace" font-size="11" fill="#8a93a6" letter-spacing="1.1">MERGED UPSTREAM</text>
<line x1="183" y1="170" x2="183" y2="206" stroke="#1a1e28"/>
<text x="200" y="184" font-family="ui-monospace,'Cascadia Code',Consolas,'DejaVu Sans Mono',monospace" font-size="22" fill="#4fb3ff" font-weight="600">3,905</text>
<text x="200" y="206" font-family="ui-monospace,'Cascadia Code',Consolas,'DejaVu Sans Mono',monospace" font-size="11" fill="#8a93a6" letter-spacing="1.1">INTEGRATIONS WATCHED</text>
<line x1="371" y1="170" x2="371" y2="206" stroke="#1a1e28"/>
<text x="388" y="184" font-family="ui-monospace,'Cascadia Code',Consolas,'DejaVu Sans Mono',monospace" font-size="22" fill="#4fb3ff" font-weight="600">732</text>
<text x="388" y="206" font-family="ui-monospace,'Cascadia Code',Consolas,'DejaVu Sans Mono',monospace" font-size="11" fill="#8a93a6" letter-spacing="1.1">BREAKING AHEAD</text>
<line x1="513" y1="170" x2="513" y2="206" stroke="#1a1e28"/>
<text x="530" y="184" font-family="ui-monospace,'Cascadia Code',Consolas,'DejaVu Sans Mono',monospace" font-size="22" fill="#4fb3ff" font-weight="600">23</text>
<text x="530" y="206" font-family="ui-monospace,'Cascadia Code',Consolas,'DejaVu Sans Mono',monospace" font-size="11" fill="#8a93a6" letter-spacing="1.1">NPM INSTALL SCRIPTS</text>
<line x1="694" y1="170" x2="694" y2="206" stroke="#1a1e28"/>
<text x="710" y="184" font-family="ui-monospace,'Cascadia Code',Consolas,'DejaVu Sans Mono',monospace" font-size="22" fill="#4fb3ff" font-weight="600">DAY 26</text>
<text x="710" y="206" font-family="ui-monospace,'Cascadia Code',Consolas,'DejaVu Sans Mono',monospace" font-size="11" fill="#8a93a6" letter-spacing="1.1">DAILY FABLE STREAK</text>
<text x="886" y="138" text-anchor="end" font-family="ui-monospace,'Cascadia Code',Consolas,'DejaVu Sans Mono',monospace" font-size="9.5" fill="#8a93a6" opacity="0.75">seed 2026-08-22</text>
</svg>