<svg xmlns="http://www.w3.org/2000/svg" width="900" height="226" viewBox="0 0 900 226" role="img" aria-label="seed 2026-08-26">
<defs><clipPath id="art"><rect width="900" height="150" rx="8"/></clipPath></defs>
<rect width="900" height="226" rx="8" fill="#05060a" stroke="#1a1e28"/>
<g clip-path="url(#art)">
<polyline points="454,71 452,77 449,84 446,90 442,96 439,102 435,108 431,114 427,119 423,125 419,131 415,137 412,143 408,149 405,155 403,162 400,168 398,175 397,182 396,189 397,196" fill="none" stroke="#58aef2" stroke-width="0.84" stroke-opacity="0.18" stroke-linecap="round"/>
<polyline points="550,-20 557,-21 564,-23 571,-24 577,-27 584,-30 590,-33 596,-36 602,-40 608,-43 614,-48" fill="none" stroke="#58aef1" stroke-width="1.59" stroke-opacity="0.24" stroke-linecap="round"/>
<polyline points="621,-19 627,-21 634,-23 641,-26 647,-28 654,-31 660,-34 666,-37 673,-40 679,-44 685,-47" fill="none" stroke="#58aef1" stroke-width="1.47" stroke-opacity="0.28" stroke-linecap="round"/>
<polyline points="872,64 875,58 879,52 884,47 889,42 895,38 901,34 907,31 913,28 920,26 927,25 934,25 941,25 948,26 955,28 961,30 968,32" fill="none" stroke="#59aef0" stroke-width="1.51" stroke-opacity="0.22" stroke-linecap="round"/>
<polyline points="551,61 552,68 552,75 552,82 550,89 548,96 545,102 542,108 538,114 533,119 529,125 524,130 519,135 514,140 510,145 505,150 500,155 496,161 492,167 488,172 485,179 482,185 480,192 479,199" fill="none" stroke="#59aef0" stroke-width="1.43" stroke-opacity="0.36" stroke-linecap="round"/>
<polyline points="242,130 247,136 250,142 254,148 256,154 259,161 261,168 263,175 264,181 266,188 268,195" fill="none" stroke="#5aadef" stroke-width="1.14" stroke-opacity="0.42" stroke-linecap="round"/>
<polyline points="77,72 84,75 90,78 97,80 103,82 110,84 117,86 124,87 131,88 138,89 145,89 152,90 159,90 166,90 173,90 180,91 187,91 194,91 201,92 207,93 214,94 221,96 228,98 234,100 241,104 246,107 252,112 257,117 261,122 265,128 268,135 270,141 272,148 274,155 275,161 277,168 278,175 279,182 280,189 281,196" fill="none" stroke="#5aadee" stroke-width="1.31" stroke-opacity="0.29" stroke-linecap="round"/>
<polyline points="80,111 85,115 91,120 96,124 102,128 108,131 114,135 121,138 127,141 133,144 139,148 145,151 152,154 158,157 164,160 170,164 176,168 182,172 188,176 193,180 198,185 204,189 209,194 213,199" fill="none" stroke="#5aadee" stroke-width="1.44" stroke-opacity="0.27" stroke-linecap="round"/>
<polyline points="872,11 878,9 885,7 892,5 899,4 906,4 913,4 920,4 927,5 933,7 940,9 947,11 953,14 959,17 965,21" fill="none" stroke="#5badee" stroke-width="1.35" stroke-opacity="0.15" stroke-linecap="round"/>
<polyline points="248,-2 253,-7 258,-12 263,-16 269,-21 274,-25 280,-29 286,-33 292,-36 298,-39 305,-42 311,-44 318,-46 325,-47 332,-48 339,-49 346,-49 353,-48 360,-47 367,-45 373,-43 380,-40 386,-37 392,-34 398,-30 403,-25 408,-20 413,-15 417,-10 421,-4 425,2 428,8 431,14 434,21 436,28 438,34 439,41 439,48 439,55 438,62 436,69 434,76 431,82 428,89 425,95 422,101 418,107 415,113 411,119 407,125 404,131 400,137 397,143 394,150 392,156 389,163 387,169 386,176 385,183 384,190 385,197" fill="none" stroke="#5baded" stroke-width="1.02" stroke-opacity="0.43" stroke-linecap="round"/>
<polyline points="85,79 91,82 98,84 104,86 111,89 118,90 124,92 131,93 138,94 145,95 152,96 159,97 166,98 173,99 180,100 187,101 194,102 200,104 207,106 214,108 220,111 226,115 232,119 237,123 242,128 247,134 251,139 254,146 257,152 259,158 261,165 263,172 265,179 266,186 268,192 270,199" fill="none" stroke="#5bacec" stroke-width="0.97" stroke-opacity="0.21" stroke-linecap="round"/>
<polyline points="866,145 867,138 868,131 870,124 871,117 873,111 874,104 876,97 879,90 881,84 884,78 887,71 891,66 895,60 900,55 905,50 911,46 917,43 924,40 930,38 937,37 944,36 951,36 958,37 965,39" fill="none" stroke="#5cacec" stroke-width="1.37" stroke-opacity="0.20" stroke-linecap="round"/>
<polyline points="650,131 646,137 643,143 638,149 634,154 629,159 624,164 619,169 614,174 609,179 604,184 599,189 595,195" fill="none" stroke="#5caceb" stroke-width="1.13" stroke-opacity="0.31" stroke-linecap="round"/>
<polyline points="358,50 361,56 362,63 363,70 364,77 364,84 363,91 362,98 361,105 360,112 358,119 356,125 355,132 353,139 351,146 350,153 349,159 348,166 347,173 346,180 346,187 347,194" fill="none" stroke="#5caceb" stroke-width="1.30" stroke-opacity="0.29" stroke-linecap="round"/>
<polyline points="365,109 363,116 362,123 360,129 358,136 356,143 354,150 353,157 352,163 350,170 350,177 349,184 350,191 350,198" fill="none" stroke="#5dacea" stroke-width="1.56" stroke-opacity="0.33" stroke-linecap="round"/>
<polyline points="473,114 469,119 464,125 460,130 455,135 451,141 447,147 443,152 439,158 436,164 433,171 431,177 429,184 428,191 428,198" fill="none" stroke="#5dabea" stroke-width="1.36" stroke-opacity="0.39" stroke-linecap="round"/>
<polyline points="-31,94 -28,101 -27,107 -25,114 -24,121 -23,128 -22,135 -22,142 -21,149 -20,156 -20,163 -19,170 -17,177 -16,184 -14,190 -11,197" fill="none" stroke="#5dabea" stroke-width="0.97" stroke-opacity="0.29" stroke-linecap="round"/>
<polyline points="308,-22 315,-22 322,-22 329,-21 336,-19 342,-17 349,-14 355,-10 360,-6 365,-1 370,4 374,10 378,15 382,21 385,28 387,34 389,41 390,48 391,55 391,62 390,69 389,76 388,83 386,90 384,96 382,103 380,110 377,116 375,123 372,129 370,136 368,142 366,149 364,156 362,163 361,170 360,176 359,183 359,190 360,197" fill="none" stroke="#5dabe9" stroke-width="1.43" stroke-opacity="0.29" stroke-linecap="round"/>
<polyline points="603,124 598,129 593,134 588,139 583,143 577,148 572,152 567,157 562,162 557,167 552,172 548,177 543,183 540,189 537,195" fill="none" stroke="#5eabe9" stroke-width="0.93" stroke-opacity="0.30" stroke-linecap="round"/>
<polyline points="583,113 579,118 574,123 569,129 565,134 560,138 554,143 549,148 544,153 539,158 535,163 530,168 526,174 522,180 518,186 516,192 513,199" fill="none" stroke="#5eabe8" stroke-width="0.91" stroke-opacity="0.22" stroke-linecap="round"/>
<polyline points="82,31 89,30 96,28 102,25 109,22 114,18 120,14 125,9 129,3 132,-3 135,-9 138,-16 140,-23 141,-29 143,-36 143,-43" fill="none" stroke="#5eabe8" stroke-width="1.40" stroke-opacity="0.27" stroke-linecap="round"/>
<polyline points="305,129 306,136 306,143 307,150 307,157 307,164 307,171 307,178 307,185 308,192 309,199" fill="none" stroke="#5fabe8" stroke-width="0.94" stroke-opacity="0.36" stroke-linecap="round"/>
<polyline points="267,10 274,8 280,5 287,3 294,2 301,1 308,1 315,2 322,4 328,6 334,9 340,13 346,17 351,22 355,28 359,33 363,40 365,46 367,53 369,60 370,67 370,74 370,81 369,88 368,94 367,101 365,108 363,115 362,122 360,128 358,135 356,142 354,149 353,156 352,162 350,169 350,176 349,183 349,190 350,197" fill="none" stroke="#5faae7" stroke-width="1.47" stroke-opacity="0.40" stroke-linecap="round"/>
<polyline points="150,51 156,48 162,44 168,40 173,36 178,31 183,25 187,20 191,14 194,8 197,1 200,-5 202,-12 204,-18 206,-25 208,-32 209,-39 210,-46" fill="none" stroke="#5faae7" stroke-width="1.52" stroke-opacity="0.25" stroke-linecap="round"/>
<polyline points="440,111 436,117 432,122 428,128 424,134 420,140 416,146 413,152 410,158 407,165 405,171 403,178 402,185 402,192 402,199" fill="none" stroke="#5faae6" stroke-width="1.21" stroke-opacity="0.31" stroke-linecap="round"/>
<polyline points="188,140 194,144 200,148 205,152 210,157 215,162 220,167 224,173 228,179 231,185 235,191 238,197" fill="none" stroke="#60aae6" stroke-width="0.91" stroke-opacity="0.27" stroke-linecap="round"/>
<polyline points="691,32 698,33 705,35 712,36 719,36 726,36 733,36 740,35 746,33 753,31 760,29 766,26 772,23 779,20 785,16 791,13 797,9 803,6 809,2 815,-1 822,-4 828,-7 835,-9 841,-11 848,-13 855,-14 862,-15 869,-15 876,-15 883,-14 890,-14 897,-13 904,-12 911,-10 917,-8 924,-6 931,-4 937,-1 943,2 950,6 956,9 961,13 967,17" fill="none" stroke="#60aae6" stroke-width="1.19" stroke-opacity="0.17" stroke-linecap="round"/>
<polyline points="79,158 84,162 90,166 96,169 102,173 109,176 115,178 122,181 128,184 135,186 141,188 148,191 154,193 161,196 167,199" fill="none" stroke="#60aae5" stroke-width="1.35" stroke-opacity="0.25" stroke-linecap="round"/>
<polyline points="8,54 12,59 17,64 21,70 25,75 29,81 32,87 36,93 40,99 43,105 47,111 51,117 55,123 59,129 63,134 68,139 72,144 78,149 83,154 89,158 94,162 100,165 107,169 113,172 119,175 126,177 132,180 139,183 145,185 152,188 158,191 164,194 171,197 177,200" fill="none" stroke="#61a9e4" stroke-width="1.53" stroke-opacity="0.35" stroke-linecap="round"/>
<polyline points="403,49 403,56 402,63 401,70 400,76 398,83 396,90 394,96 391,103 388,109 386,116 383,122 380,129 377,135 375,142 373,148 370,155 369,162 367,169 366,175 365,182 365,189 365,196" fill="none" stroke="#61a9e3" stroke-width="1.31" stroke-opacity="0.24" stroke-linecap="round"/>
<polyline points="214,48 221,44 227,41 233,38 239,34 245,31 251,27 257,24 264,21 270,19 277,17 284,15 291,14 298,14 305,14 312,15 318,17 325,20 331,24 336,28 342,33 346,38 350,44 353,50 356,56 358,63 359,70 360,77 360,84 360,91 359,98 358,105 357,112 355,119 354,126 352,132 351,139 349,146 348,153 346,160 345,167 345,174 344,181 344,188 345,195" fill="none" stroke="#62a9e3" stroke-width="1.40" stroke-opacity="0.28" stroke-linecap="round"/>
<polyline points="762,118 769,116 775,113 781,110 787,105 792,101 797,96 802,90 806,85 810,79 814,74 818,68 822,62 826,57 831,51 835,46 840,40 844,35 850,30 855,26 861,22 866,18 873,15 879,12 886,10 892,8 899,7 906,6 913,6 920,6 927,7 934,8 941,10 947,13 954,15 960,19 966,22" fill="none" stroke="#62a9e3" stroke-width="1.44" stroke-opacity="0.19" stroke-linecap="round"/>
<polyline points="190,121 196,124 203,127 209,131 214,135 220,140 224,145 229,150 233,156 237,162 240,168 243,174 246,181 249,187 251,194" fill="none" stroke="#62a9e2" stroke-width="1.19" stroke-opacity="0.31" stroke-linecap="round"/>
<polyline points="792,24 798,21 804,17 809,13 815,9 821,6 828,2 834,-1 840,-3 847,-6 854,-7 861,-9 867,-10 874,-11 881,-11 888,-11 895,-10 902,-9 909,-8 916,-7 923,-5 929,-3 936,-0 942,3 949,6 955,10 961,13 966,17" fill="none" stroke="#62a9e2" stroke-width="0.82" stroke-opacity="0.34" stroke-linecap="round"/>
<polyline points="37,76 42,82 46,87 50,92 55,98 59,103 64,108 69,114 74,119 79,123 84,128 89,132 95,137 101,141 107,144 113,148 119,151 125,155 131,158 137,161 144,164 150,167 156,170 162,174 168,177 175,181 180,184 186,188 192,192 197,197" fill="none" stroke="#63a8e1" stroke-width="0.77" stroke-opacity="0.19" stroke-linecap="round"/>
<polyline points="810,39 815,35 820,30 826,26 831,21 837,17 843,13 849,10 855,7 862,4 868,2 875,-0 882,-1 889,-2 896,-3 903,-3 910,-2 917,-1 924,0 930,2 937,4 943,7 950,10 956,13 962,16 968,20" fill="none" stroke="#63a8e1" stroke-width="1.52" stroke-opacity="0.21" stroke-linecap="round"/>
<polyline points="797,56 802,51 808,46 813,41 818,37 823,32 828,27 834,23 839,19 845,15 851,11 857,8 864,5 870,3 877,1 884,-0 891,-1 898,-1 905,-1 912,-1 919,-0 926,1 932,3 939,5 946,8 952,11 958,14 964,18 970,22" fill="none" stroke="#63a8e0" stroke-width="1.37" stroke-opacity="0.30" stroke-linecap="round"/>
<polyline points="830,83 833,77 836,70 839,64 843,58 847,53 851,47 855,42 860,36 865,32 871,27 877,23 883,20 889,17 896,15 903,13 909,12 916,11 923,12 930,12 937,13 944,15 951,17 957,20 964,23 970,26" fill="none" stroke="#64a8df" stroke-width="1.48" stroke-opacity="0.25" stroke-linecap="round"/>
<polyline points="298,134 299,141 299,148 300,155 300,162 300,169 300,176 301,183 301,190 302,197" fill="none" stroke="#64a8df" stroke-width="1.21" stroke-opacity="0.21" stroke-linecap="round"/>
<polyline points="687,-15 693,-17 700,-19 706,-22 713,-24 719,-27 726,-30 732,-33 739,-35 745,-38 752,-41 758,-43 765,-45 772,-47 778,-48 785,-49" fill="none" stroke="#64a7df" stroke-width="0.74" stroke-opacity="0.40" stroke-linecap="round"/>
<polyline points="378,135 375,142 373,148 371,155 369,162 367,168 366,175 365,182 365,189 366,196" fill="none" stroke="#65a7de" stroke-width="1.22" stroke-opacity="0.20" stroke-linecap="round"/>
<polyline points="485,58 484,65 483,72 481,78 479,85 476,91 472,97 468,103 464,109 460,114 455,120 451,125 447,131 442,136 438,142 434,148 431,154 427,160 424,166 422,173 420,179 419,186 418,193" fill="none" stroke="#65a7de" stroke-width="1.59" stroke-opacity="0.30" stroke-linecap="round"/>
<polyline points="777,-10 783,-12 790,-15 796,-18 803,-20 810,-22 816,-24 823,-25 830,-26 837,-26 844,-26 851,-26 858,-26 865,-25 872,-24 879,-22 886,-21 893,-19 899,-17 906,-15 913,-13 919,-11 926,-8 932,-5 938,-2 945,1 951,4 957,8 962,12 968,16" fill="none" stroke="#65a7dd" stroke-width="0.92" stroke-opacity="0.18" stroke-linecap="round"/>
<polyline points="581,151 576,155 570,160 565,165 560,170 556,175 551,181 547,186 544,192 541,199" fill="none" stroke="#66a7dd" stroke-width="1.18" stroke-opacity="0.16" stroke-linecap="round"/>
<polyline points="566,-13 573,-14 580,-15 587,-17 594,-18 600,-21 607,-23 614,-25 620,-28 627,-30 633,-33 639,-36 645,-40 651,-43 657,-47" fill="none" stroke="#66a7dd" stroke-width="1.21" stroke-opacity="0.29" stroke-linecap="round"/>
<polyline points="164,106 171,108 178,109 185,111 191,113 198,115 204,118 211,121 216,125 222,129 227,134 232,139 237,145 240,150 244,156 247,163 250,169 252,176 254,182 257,189 259,196" fill="none" stroke="#66a6dc" stroke-width="1.02" stroke-opacity="0.22" stroke-linecap="round"/>
<polyline points="479,41 480,48 480,55 480,62 479,69 477,76 474,82 472,89 468,95 464,101 460,106 456,112 452,117 448,123 443,128 439,134 435,140 431,145 427,151 424,158 421,164 418,170 416,177 415,184 414,191 414,198" fill="none" stroke="#66a6dc" stroke-width="1.51" stroke-opacity="0.38" stroke-linecap="round"/>
<polyline points="877,80 880,74 884,67 888,62 892,56 897,51 902,46 908,42 914,39 920,36 927,34 934,33 941,33 948,33 955,34 962,35 968,37" fill="none" stroke="#67a6db" stroke-width="1.30" stroke-opacity="0.19" stroke-linecap="round"/>
<polyline points="105,127 111,131 117,134 124,137 130,141 136,144 142,147 149,150 155,153 161,156 167,160 173,163 179,167 185,171 190,175 196,180 201,185 206,189 211,194 216,200" fill="none" stroke="#67a6db" stroke-width="0.87" stroke-opacity="0.29" stroke-linecap="round"/>
<polyline points="90,117 96,121 101,125 107,129 113,132 120,136 126,139 132,142 138,145 145,148 151,151 157,155 163,158 169,161 175,165 181,169 187,173 192,177 198,182 203,187 208,192 213,197" fill="none" stroke="#67a6da" stroke-width="0.80" stroke-opacity="0.19" stroke-linecap="round"/>
<polyline points="366,26 369,32 372,38 374,45 376,52 377,59 377,66 377,73 377,80 376,87 374,94 373,100 371,107 369,114 367,121 365,127 363,134 361,141 359,147 357,154 356,161 354,168 354,175 353,182 353,189 353,196" fill="none" stroke="#68a5d9" stroke-width="1.37" stroke-opacity="0.35" stroke-linecap="round"/>
<polyline points="538,72 537,79 536,86 534,93 531,99 527,105 523,111 519,116 515,122 510,127 505,132 500,137 496,142 491,148 487,153 482,159 478,164 475,170 471,177 469,183 467,190 466,197" fill="none" stroke="#68a5d9" stroke-width="1.15" stroke-opacity="0.44" stroke-linecap="round"/>
<polyline points="856,110 857,104 859,97 861,90 863,83 866,77 869,71 872,64 876,58 880,53 885,48 890,43 895,38 901,35 907,31 914,29 921,27 928,26 935,25 941,26 948,27 955,28 962,30 969,33" fill="none" stroke="#68a5d9" stroke-width="1.17" stroke-opacity="0.38" stroke-linecap="round"/>
<polyline points="205,38 210,34 216,29 221,24 226,19 230,14 235,9 240,4 244,-1 249,-6 254,-11 259,-16 264,-21 270,-25 275,-30 281,-34 287,-38 293,-41 299,-45 305,-48" fill="none" stroke="#69a5d8" stroke-width="1.03" stroke-opacity="0.31" stroke-linecap="round"/>
<polyline points="144,101 150,103 157,104 164,105 171,107 178,108 185,110 191,112 198,114 204,117 211,120 217,124 222,128 228,133 232,138 237,143 241,149 244,155 247,161 250,168 253,174 255,181 257,187 259,194" fill="none" stroke="#69a5d8" stroke-width="0.86" stroke-opacity="0.38" stroke-linecap="round"/>
<polyline points="215,106 222,109 228,112 234,116 239,120 244,125 249,130 253,136 256,142 259,149 261,155 263,162 265,169 267,175 268,182 270,189 271,196" fill="none" stroke="#69a5d7" stroke-width="0.72" stroke-opacity="0.27" stroke-linecap="round"/>
<polyline points="59,169 65,174 70,178 76,182 83,185 89,188 95,190 102,192 109,194 116,196 122,198 129,200" fill="none" stroke="#6aa5d7" stroke-width="1.31" stroke-opacity="0.32" stroke-linecap="round"/>
<polyline points="279,-26 285,-30 292,-33 298,-36 304,-38 311,-40 318,-42 325,-43 332,-44 339,-44 346,-43 353,-42 359,-40 366,-38 372,-35 379,-32 384,-28 390,-23 395,-19 400,-13 404,-8 408,-2 412,4 415,10 418,16 420,23 422,30 424,37 424,43 425,50 424,57 423,64 421,71 419,78 417,84 414,91 411,97 408,103 405,110 401,116 398,122 395,128 392,134 389,141 386,147 383,154 381,160 379,167 378,174 377,181 376,188 376,195" fill="none" stroke="#6aa4d7" stroke-width="1.29" stroke-opacity="0.32" stroke-linecap="round"/>
<polyline points="380,2 384,8 388,14 391,20 394,27 396,33 398,40 399,47 399,54 399,61 398,68 397,75 395,82 393,88 391,95 389,102 386,108 383,115 381,121 378,127 376,134 373,141 371,147 369,154 367,161 365,167 364,174 363,181 363,188 364,195" fill="none" stroke="#6ba4d5" stroke-width="0.77" stroke-opacity="0.20" stroke-linecap="round"/>
<polyline points="650,3 657,3 664,3 671,3 678,3 685,2 692,2 699,0 705,-1 712,-3 719,-4 726,-7 732,-9 739,-11 745,-14 752,-17 758,-20 765,-22 771,-25 778,-27 784,-29 791,-31 798,-33 805,-34 812,-35 819,-35 826,-35 833,-35 840,-34 847,-33 854,-32 860,-31 867,-29 874,-27 881,-25 887,-23 894,-21 901,-19 907,-17 914,-14 920,-12 927,-9 933,-6 939,-3 946,1 952,4 957,8 963,12 969,16" fill="none" stroke="#6ba4d5" stroke-width="1.09" stroke-opacity="0.33" stroke-linecap="round"/>
<polyline points="71,2 77,-1 83,-5 88,-10 93,-15 97,-21 101,-27 104,-33 107,-39 109,-46" fill="none" stroke="#6ba4d5" stroke-width="1.39" stroke-opacity="0.28" stroke-linecap="round"/>
<polyline points="842,-6 849,-8 856,-10 863,-11 870,-12 877,-12 884,-12 891,-12 898,-11 905,-10 911,-8 918,-7 925,-5 932,-2 938,0 944,3 951,7 957,10 962,14 968,18" fill="none" stroke="#6ba4d4" stroke-width="1.52" stroke-opacity="0.26" stroke-linecap="round"/>
<polyline points="702,119 705,124 709,130 714,136 719,140 724,145 730,148 737,151 744,153 751,153 758,153 764,151 771,149 777,145 783,141 788,137 793,132 798,127 802,121 806,115 810,109 813,103 817,97 820,91 823,85 827,79 830,73 833,66 837,60 841,55 845,49 849,43 854,38 859,33 864,29 870,25 876,21 882,18 889,15 895,13 902,11 909,10 916,10 923,10 930,11 937,12 944,14 950,16 957,19 963,22 969,25" fill="none" stroke="#6ca3d4" stroke-width="1.07" stroke-opacity="0.18" stroke-linecap="round"/>
<polyline points="315,-26 322,-26 329,-25 336,-23 343,-21 349,-18 355,-15 361,-11 366,-6 371,-1 376,4 380,10 384,16 387,22 390,28 392,35 393,42 394,49 395,56 394,63 394,70 393,76 391,83 389,90 387,97 385,103 382,110 380,116 377,123 375,129 372,136 370,143 368,149 366,156 364,163 363,170 362,177 361,184 361,191 362,198" fill="none" stroke="#6ca3d3" stroke-width="1.22" stroke-opacity="0.29" stroke-linecap="round"/>
<polyline points="664,52 668,58 673,63 677,68 681,74 685,80 689,86 693,92 697,97 701,103 705,109 709,114 714,119 719,124 725,128 731,132 737,134 744,136 751,137 758,136 765,135 772,132 778,129 784,125 789,121 794,116 799,110 803,105 807,99 811,93 815,87 818,82 822,76 826,70 829,64 833,58 837,52 841,46 846,41 851,36 856,31 861,27 867,23 873,19 879,16 886,13 892,11 899,10 906,9 913,8 920,8 927,9 934,10 941,12 947,14 954,17 960,20 966,23" fill="none" stroke="#6ca3d3" stroke-width="0.89" stroke-opacity="0.26" stroke-linecap="round"/>
<polyline points="312,106 314,113 315,120 316,127 316,134 316,141 316,148 316,155 315,162 315,169 315,176 315,183 316,190 316,197" fill="none" stroke="#6ca3d2" stroke-width="1.57" stroke-opacity="0.28" stroke-linecap="round"/>
<polyline points="882,-8 889,-8 896,-7 903,-7 910,-6 917,-5 924,-3 930,-1 937,2 943,4 950,8 956,11 962,15 968,18" fill="none" stroke="#6da3d2" stroke-width="0.79" stroke-opacity="0.20" stroke-linecap="round"/>
<polyline points="835,28 840,24 846,19 852,15 858,12 864,9 871,6 877,4 884,3 891,1 898,1 905,1 912,1 919,2 926,3 933,5 939,7 946,9 952,12 958,15 964,19" fill="none" stroke="#6da3d1" stroke-width="1.05" stroke-opacity="0.14" stroke-linecap="round"/>
<polyline points="269,87 274,91 279,96 284,101 288,107 291,113 293,120 295,127 296,133 297,140 298,147 298,154 299,161 299,168 299,175 300,182 300,189 301,196" fill="none" stroke="#6ea2d1" stroke-width="1.55" stroke-opacity="0.35" stroke-linecap="round"/>
<polyline points="661,-20 668,-22 674,-24 681,-27 687,-29 694,-32 700,-35 706,-38 712,-42 719,-45 725,-48" fill="none" stroke="#6ea2d0" stroke-width="1.18" stroke-opacity="0.26" stroke-linecap="round"/>
<polyline points="57,84 62,89 68,94 73,99 78,103 84,107 89,111 95,115 101,119 107,123 113,126 119,129 126,133 132,136 138,139 145,142 151,145 157,148 163,151 169,154 175,158 181,162 187,166 193,170 198,175 203,180 208,185 213,190 217,195" fill="none" stroke="#6ea2d0" stroke-width="1.21" stroke-opacity="0.38" stroke-linecap="round"/>
<polyline points="285,69 291,73 297,77 301,82 305,88 309,94 311,101 313,107 315,114 316,121 316,128 316,135 316,142 316,149 316,156 316,163 316,170 315,177 316,184 316,191 317,198" fill="none" stroke="#6fa2cf" stroke-width="1.56" stroke-opacity="0.19" stroke-linecap="round"/>
<polyline points="723,166 729,170 735,172 742,174 749,174 756,173 763,172 769,169 775,166 781,162 787,157 792,153 796,147 801,142 804,136 808,130 812,124 815,118 818,111 821,105 824,99 827,92 830,86 833,80 836,73 839,67 842,61 846,55 850,49 854,44 859,39 864,34 870,29 875,25 881,22 888,19 894,16 901,14 908,13 915,12 922,12 929,12 936,13 942,15 949,17 956,19 962,22 968,26" fill="none" stroke="#6fa2ce" stroke-width="0.81" stroke-opacity="0.24" stroke-linecap="round"/>
<polyline points="-30,98 -28,105 -26,111 -25,118 -24,125 -23,132 -23,139 -22,146 -21,153 -21,160 -20,167 -19,174 -17,181 -15,188 -13,194" fill="none" stroke="#6fa1ce" stroke-width="1.60" stroke-opacity="0.21" stroke-linecap="round"/>
<polyline points="310,131 311,138 311,145 311,152 311,159 311,166 311,173 311,180 311,187 312,194" fill="none" stroke="#70a1ce" stroke-width="1.03" stroke-opacity="0.24" stroke-linecap="round"/>
<polyline points="697,39 704,41 710,43 717,44 724,45 731,45 738,44 745,43 752,42 759,40 765,37 772,34 778,31 784,27 790,23 796,20 802,16 807,12 813,8 820,5 826,2 832,-1 838,-4 845,-6 852,-8 859,-10 866,-11 873,-11 880,-12 887,-11 894,-11 900,-10 907,-9 914,-7 921,-6 928,-4 934,-1 941,2 947,5 953,8 959,12 965,16" fill="none" stroke="#70a1cd" stroke-width="1.40" stroke-opacity="0.16" stroke-linecap="round"/>
<polyline points="542,37 546,43 550,49 553,55 555,61 557,68 557,75 556,82 555,89 553,96 550,102 546,108 543,114 538,120 534,125 529,130 524,135 519,140 514,145 510,150 505,156 501,161 496,167 493,172 489,179 486,185 484,192 483,199" fill="none" stroke="#70a1cd" stroke-width="0.74" stroke-opacity="0.35" stroke-linecap="round"/>
<polyline points="230,15 235,10 240,5 244,-1 249,-6 254,-11 259,-15 264,-20 270,-24 275,-29 281,-33 287,-37 293,-40 299,-43 305,-46 312,-49" fill="none" stroke="#71a1cc" stroke-width="0.78" stroke-opacity="0.22" stroke-linecap="round"/>
<polyline points="665,113 664,120 663,127 661,134 659,140 656,147 653,153 650,159 647,165 643,171 639,177 636,183 632,189 629,195" fill="none" stroke="#71a1cc" stroke-width="1.41" stroke-opacity="0.36" stroke-linecap="round"/>
<polyline points="-47,108 -45,115 -43,121 -42,128 -40,135 -39,142 -38,149 -38,156 -37,163 -36,170 -35,177 -33,183 -32,190 -30,197" fill="none" stroke="#71a0cb" stroke-width="1.23" stroke-opacity="0.33" stroke-linecap="round"/>
<polyline points="475,102 471,108 467,113 463,119 458,124 454,130 449,135 445,141 441,146 437,152 434,158 430,165 428,171 425,178 424,184 423,191 423,198" fill="none" stroke="#72a0cb" stroke-width="1.18" stroke-opacity="0.37" stroke-linecap="round"/>
<polyline points="834,80 838,73 841,67 844,61 848,55 852,49 856,44 861,39 866,34 871,29 877,25 883,22 890,19 896,16 903,15 910,13 917,13 924,13 931,13 938,14 944,16 951,18 958,21 964,24" fill="none" stroke="#72a0ca" stroke-width="1.05" stroke-opacity="0.41" stroke-linecap="round"/>
<polyline points="475,113 470,118 466,123 461,129 457,134 453,140 448,145 444,151 441,157 437,163 434,169 432,176 430,183 429,190 428,197" fill="none" stroke="#72a0ca" stroke-width="1.42" stroke-opacity="0.24" stroke-linecap="round"/>
<polyline points="506,75 504,82 502,88 499,94 495,100 491,106 487,112 482,117 478,123 473,128 469,133 464,139 460,144 456,150 452,155 448,161 445,168 442,174 440,181 438,187 437,194" fill="none" stroke="#73a0c9" stroke-width="1.18" stroke-opacity="0.41" stroke-linecap="round"/>
<polyline points="45,140 49,146 53,151 58,157 63,162 68,167 73,171 79,175 85,178 91,181 98,184 104,187 111,189 118,191 124,193 131,195 138,197 144,199" fill="none" stroke="#73a0c9" stroke-width="1.20" stroke-opacity="0.39" stroke-linecap="round"/>
<polyline points="397,36 398,43 399,50 399,57 398,64 397,71 396,78 394,85 392,92 390,98 387,105 385,111 382,118 379,124 377,131 374,137 372,144 370,150 368,157 366,164 365,171 364,178 363,185 363,192 364,199" fill="none" stroke="#739fc8" stroke-width="1.45" stroke-opacity="0.41" stroke-linecap="round"/>
<polyline points="800,138 804,132 808,126 811,120 814,114 818,108 821,102 824,95 827,89 830,83 833,76 836,70 839,64 843,58 847,52 851,47 856,41 860,36 866,31 871,27 877,23 883,20 890,17 896,15 903,13 910,12 917,11 924,11 931,12 938,13 944,15 951,17 958,20 964,23" fill="none" stroke="#739fc8" stroke-width="0.91" stroke-opacity="0.17" stroke-linecap="round"/>
<polyline points="273,64 279,67 286,70 291,74 297,78 301,83 305,89 308,95 311,102 313,109 314,116 315,123 316,130 316,137 316,144 316,151 315,158 315,165 315,172 315,179 315,186 316,193 317,199" fill="none" stroke="#749fc8" stroke-width="1.30" stroke-opacity="0.35" stroke-linecap="round"/>
<polyline points="777,152 783,148 788,144 793,139 797,133 802,128 806,122 809,116 813,110 816,104 819,98 822,91 826,85 829,79 832,73 835,67 839,61 843,55 847,49 851,43 856,38 861,33 866,29 872,25 878,21 884,18 891,15 897,13 904,12 911,11 918,11 925,11 932,12 939,13 946,15 952,17 959,20 965,23" fill="none" stroke="#749fc7" stroke-width="1.29" stroke-opacity="0.30" stroke-linecap="round"/>
<polyline points="544,-23 551,-24 558,-26 565,-28 571,-30 578,-33 584,-36 590,-40 596,-44 601,-48" fill="none" stroke="#759fc6" stroke-width="0.87" stroke-opacity="0.19" stroke-linecap="round"/>
<polyline points="408,5 411,11 414,17 416,24 418,31 419,37 420,44 420,51 420,58 419,65 417,72 415,79 412,85 410,92 407,98 404,104 401,111 397,117 394,123 391,129 388,136 385,142 382,149 380,155 378,162 376,169 375,176 374,182 374,189 374,196" fill="none" stroke="#759ec6" stroke-width="1.53" stroke-opacity="0.41" stroke-linecap="round"/>
<polyline points="862,1 868,-1 875,-2 882,-3 889,-4 896,-4 903,-4 910,-3 917,-2 924,-1 931,1 937,3 944,6 950,9 956,12 962,16 968,20" fill="none" stroke="#759ec6" stroke-width="1.47" stroke-opacity="0.44" stroke-linecap="round"/>
</g>
<rect y="124" width="900" height="102" fill="#05060a" fill-opacity="0.86"/>
<line x1="0" y1="150" x2="900" y2="150" stroke="#1a1e28"/>
<text x="51" y="184" font-family="ui-monospace,'Cascadia Code',Consolas,'DejaVu Sans Mono',monospace" font-size="22" fill="#4fb3ff" font-weight="600">46</text>
<text x="51" y="206" font-family="ui-monospace,'Cascadia Code',Consolas,'DejaVu Sans Mono',monospace" font-size="11" fill="#8a93a6" letter-spacing="1.1">MERGED UPSTREAM</text>
<line x1="183" y1="170" x2="183" y2="206" stroke="#1a1e28"/>
<text x="200" y="184" font-family="ui-monospace,'Cascadia Code',Consolas,'DejaVu Sans Mono',monospace" font-size="22" fill="#4fb3ff" font-weight="600">3,917</text>
<text x="200" y="206" font-family="ui-monospace,'Cascadia Code',Consolas,'DejaVu Sans Mono',monospace" font-size="11" fill="#8a93a6" letter-spacing="1.1">INTEGRATIONS WATCHED</text>
<line x1="371" y1="170" x2="371" y2="206" stroke="#1a1e28"/>
<text x="388" y="184" font-family="ui-monospace,'Cascadia Code',Consolas,'DejaVu Sans Mono',monospace" font-size="22" fill="#4fb3ff" font-weight="600">840</text>
<text x="388" y="206" font-family="ui-monospace,'Cascadia Code',Consolas,'DejaVu Sans Mono',monospace" font-size="11" fill="#8a93a6" letter-spacing="1.1">BREAKING AHEAD</text>
<line x1="513" y1="170" x2="513" y2="206" stroke="#1a1e28"/>
<text x="530" y="184" font-family="ui-monospace,'Cascadia Code',Consolas,'DejaVu Sans Mono',monospace" font-size="22" fill="#4fb3ff" font-weight="600">23</text>
<text x="530" y="206" font-family="ui-monospace,'Cascadia Code',Consolas,'DejaVu Sans Mono',monospace" font-size="11" fill="#8a93a6" letter-spacing="1.1">NPM INSTALL SCRIPTS</text>
<line x1="694" y1="170" x2="694" y2="206" stroke="#1a1e28"/>
<text x="710" y="184" font-family="ui-monospace,'Cascadia Code',Consolas,'DejaVu Sans Mono',monospace" font-size="22" fill="#4fb3ff" font-weight="600">DAY 30</text>
<text x="710" y="206" font-family="ui-monospace,'Cascadia Code',Consolas,'DejaVu Sans Mono',monospace" font-size="11" fill="#8a93a6" letter-spacing="1.1">DAILY FABLE STREAK</text>
<text x="886" y="138" text-anchor="end" font-family="ui-monospace,'Cascadia Code',Consolas,'DejaVu Sans Mono',monospace" font-size="9.5" fill="#8a93a6" opacity="0.75">seed 2026-08-26</text>
</svg>