<svg xmlns="http://www.w3.org/2000/svg" width="900" height="226" viewBox="0 0 900 226" role="img" aria-label="seed 2026-08-17">
<defs><clipPath id="art"><rect width="900" height="150" rx="8"/></clipPath></defs>
<rect width="900" height="226" rx="8" fill="#05060a" stroke="#1a1e28"/>
<g clip-path="url(#art)">
<polyline points="459,75 465,79 470,84 476,88 481,93 486,97 491,102 496,107 501,112 506,117 511,122 516,127 520,132 525,138 529,143 533,149 538,154 542,160 546,166 550,171 554,177 558,183 562,188 566,194 570,200" fill="none" stroke="#58aef2" stroke-width="1.35" stroke-opacity="0.40" stroke-linecap="round"/>
<polyline points="761,154 754,156 747,158 741,161 734,164 728,166 722,169 715,172 709,176 703,179 698,183 692,188 687,193 682,198" fill="none" stroke="#58aef1" stroke-width="0.87" stroke-opacity="0.34" stroke-linecap="round"/>
<polyline points="249,61 252,55 255,48 259,43 263,37 268,32 274,27 279,23 285,20 292,17 298,15 305,14 312,13 319,13 326,14 333,15 340,17 347,19 353,21 360,24 366,27 372,30 378,33 385,37 391,40 397,44 403,47 409,51 415,54 421,58 427,61 433,65 439,69 445,72 451,76 456,80 462,84 468,88 473,92 479,97 485,101 490,105 495,110 500,115 506,119 510,124 515,129 520,135 525,140 529,145 533,151 538,156 542,162 546,168 550,173 554,179 559,184 563,190 567,196" fill="none" stroke="#58aef1" stroke-width="1.02" stroke-opacity="0.27" stroke-linecap="round"/>
<polyline points="820,109 814,114 808,118 803,122 796,125 790,128 784,131 777,134 771,137 764,139 758,141 751,144 744,146 738,148 731,151 725,153 718,156 712,159 706,162 699,165 693,169 688,173 682,177 677,182 672,187 668,192 664,198" fill="none" stroke="#59aef0" stroke-width="0.87" stroke-opacity="0.40" stroke-linecap="round"/>
<polyline points="594,131 593,138 592,145 591,152 591,159 590,166 590,173 591,180 592,187 593,194" fill="none" stroke="#59adf0" stroke-width="1.18" stroke-opacity="0.25" stroke-linecap="round"/>
<polyline points="717,152 711,155 705,158 698,161 692,165 687,169 681,173 676,178 671,183 666,188 662,194 659,200" fill="none" stroke="#59adef" stroke-width="1.08" stroke-opacity="0.37" stroke-linecap="round"/>
<polyline points="41,118 47,120 54,123 60,126 67,128 74,130 80,131 87,132 94,133 101,133 108,132 115,131 122,129 128,127 135,124 141,120 147,116 152,112 157,107 162,102 167,97 172,92 176,86 180,81 185,75 189,70 194,64 198,59 203,54 207,49 212,43 217,39 222,34 228,29 233,25 239,21 245,17 251,13 257,10 263,7 270,5 276,2 283,0 290,-1 297,-2 304,-2 311,-1 318,-0 325,1 331,3 338,6 344,9 350,12 357,15 363,19 369,22 375,26 381,30 386,33 392,37 398,41 404,45 410,49 416,52 422,56 428,60 434,64 439,68 445,71 451,75" fill="none" stroke="#5aadef" stroke-width="1.17" stroke-opacity="0.23" stroke-linecap="round"/>
<polyline points="570,35 575,40 580,44 585,49 590,54 594,60 598,66 600,73 603,79 604,86 605,93 605,100 605,107 604,114 603,121 602,128 601,135 600,142 599,149 597,155 597,162 596,169 596,176 596,183 596,190 598,197" fill="none" stroke="#5aadee" stroke-width="0.91" stroke-opacity="0.21" stroke-linecap="round"/>
<polyline points="-48,13 -42,8 -36,5 -30,1 -24,-2 -17,-4 -10,-5 -3,-6 4,-6 11,-5 18,-4 25,-2 31,-0 38,2 44,5 51,8 57,10 63,13 70,16 76,19 83,21 89,24 96,26 103,28 110,29 117,31 123,32 130,32 137,32 144,32 151,31 158,30 165,29 172,27 179,25 185,23 192,21 198,18 205,15 211,13 218,10 224,7 231,5 237,2 244,-0 250,-3 257,-5 264,-7 271,-8 277,-10 284,-11 291,-11 298,-12 305,-11 312,-10 319,-8 326,-6 332,-3 339,-0 345,3 351,6 357,10 363,14 368,18 374,22 380,26 386,30 391,34 397,38 403,42" fill="none" stroke="#5aadee" stroke-width="1.05" stroke-opacity="0.19" stroke-linecap="round"/>
<polyline points="674,118 669,123 665,129 660,134 655,139 651,144 647,150 643,156 639,162 635,168 632,174 630,181 628,187 626,194" fill="none" stroke="#5badee" stroke-width="1.41" stroke-opacity="0.26" stroke-linecap="round"/>
<polyline points="785,50 783,57 780,63 777,69 773,75 769,80 764,85 759,90 753,94 747,98 741,102 736,106 730,109 723,113 717,116 711,120 705,123 699,127 693,131 687,135 682,139 676,143 671,147 666,152 661,157 656,162 652,168 647,173 644,179 641,186 638,192 636,199" fill="none" stroke="#5baded" stroke-width="1.24" stroke-opacity="0.37" stroke-linecap="round"/>
<polyline points="768,44 767,51 765,58 762,64 758,70 754,76 749,81 744,86 739,91 734,95 728,99 723,103 717,107 711,111 705,115 699,119 694,123 688,127 682,131 677,136 672,140 666,145 661,150 657,155 652,160 648,166 644,172 640,178 637,184 635,191 633,197" fill="none" stroke="#5baced" stroke-width="1.47" stroke-opacity="0.31" stroke-linecap="round"/>
<polyline points="535,1 541,4 548,6 555,8 561,10 568,12 575,14 582,16 588,18 595,20 601,22 608,25 614,28 620,32 626,36 631,41 635,46 639,52 642,58 644,65 645,72 645,79 645,86 644,93 642,100 640,106 638,113 635,119 632,126 629,132 626,139 624,145 621,152 619,158 616,165 615,171 613,178 612,185 612,192 612,199" fill="none" stroke="#5bacec" stroke-width="1.53" stroke-opacity="0.34" stroke-linecap="round"/>
<polyline points="333,-22 339,-18 344,-14 350,-10 355,-6 361,-1 366,3 371,8 376,13 382,17 387,22 392,27 398,31 403,36 408,40 414,44 419,49 425,53 431,57 436,61 442,65 448,69 453,74 459,78 464,82 470,86 475,91 481,95 486,99 491,104 497,109 502,114 507,119 511,124 516,129 521,134 525,139 530,145 534,150 538,156 542,162 547,167 551,173 555,179 559,184 563,190 567,196" fill="none" stroke="#5cacec" stroke-width="1.01" stroke-opacity="0.23" stroke-linecap="round"/>
<polyline points="792,86 787,91 782,95 776,100 770,103 764,107 758,110 752,113 745,116 739,119 733,122 726,125 720,128 714,131 707,134 701,137 695,141 689,144 683,148 677,152 672,157 667,161 662,166 657,172 653,177 649,183 646,189 643,196" fill="none" stroke="#5caceb" stroke-width="0.79" stroke-opacity="0.32" stroke-linecap="round"/>
<polyline points="622,126 620,133 617,140 615,146 613,153 611,160 610,167 608,173 607,180 607,187 607,194" fill="none" stroke="#5caceb" stroke-width="1.17" stroke-opacity="0.40" stroke-linecap="round"/>
<polyline points="636,34 641,39 645,45 649,51 651,57 653,64 654,71 654,78 653,85 651,92 649,98 647,105 644,111 641,118 638,124 635,130 632,137 629,143 626,149 623,156 620,162 618,169 616,176 615,182 614,189 614,196" fill="none" stroke="#5dacea" stroke-width="0.72" stroke-opacity="0.14" stroke-linecap="round"/>
<polyline points="441,110 448,111 455,111 462,113 468,115 475,117 481,120 488,123 494,127 500,130 505,134 511,139 516,143 522,148 527,153 532,158 536,163 541,168 546,173 550,178 555,184 559,189 564,195" fill="none" stroke="#5dabea" stroke-width="1.09" stroke-opacity="0.37" stroke-linecap="round"/>
<polyline points="633,12 640,15 646,18 652,22 658,26 662,31 667,37 670,43 672,49 673,56 674,63 673,70 672,77 670,84 668,90 665,97 662,103 658,109 655,115 651,121 647,127 643,133 640,139 636,145 633,151 629,157 627,164 624,170 622,177 620,184 619,190 618,197" fill="none" stroke="#5dabea" stroke-width="0.75" stroke-opacity="0.30" stroke-linecap="round"/>
<polyline points="696,149 690,153 684,157 678,161 673,165 668,170 663,175 658,181 654,186 651,192 648,199" fill="none" stroke="#5dabe9" stroke-width="1.34" stroke-opacity="0.18" stroke-linecap="round"/>
<polyline points="158,34 165,32 172,30 179,28 185,26 192,23 198,20 205,18 211,15 217,12 224,9 230,6 237,4 243,1 250,-1 256,-4 263,-6 270,-7 277,-9 284,-10 291,-11 298,-11 305,-10 312,-9 318,-8 325,-6 331,-3 338,-0 344,3 350,7 356,10 362,14 368,18 374,22 379,26 385,30 391,34 397,38 402,42 408,46 414,50 420,53 426,57 431,61 437,65 443,69 449,73 455,77 460,81 466,85 472,89 477,94 483,98 488,102 493,107 498,112 504,117 508,122 513,127 518,132 523,137 527,142 532,148 536,153 540,159 544,165 548,170 552,176 557,182 561,187" fill="none" stroke="#5eabe9" stroke-width="1.57" stroke-opacity="0.20" stroke-linecap="round"/>
<polyline points="732,134 726,137 719,139 713,142 706,145 700,148 694,152 688,156 682,159 677,164 671,168 666,173 662,178 657,184 654,190 650,196" fill="none" stroke="#5eabe8" stroke-width="1.07" stroke-opacity="0.31" stroke-linecap="round"/>
<polyline points="154,-27 161,-25 167,-24 174,-24 181,-23 188,-23 195,-23 202,-23 209,-24 216,-25 223,-26 230,-27 237,-28 244,-29 251,-31 258,-32 265,-33 272,-34 279,-34 286,-34 293,-34 300,-33 306,-32 313,-30 320,-28 326,-25 332,-22 338,-18 344,-14 350,-10 355,-5 360,-1 366,4 371,8 376,13 382,18 387,22 392,27 397,31 403,36 408,40 414,44 419,49 425,53 431,57 436,61 442,65 447,69 453,74 459,78 464,82 470,86 475,91 481,95 486,100 491,104 497,109 502,114 507,119 511,124 516,129 521,134 525,139 530,145 534,150 538,156 542,162 547,167 551,173 555,179" fill="none" stroke="#5eabe8" stroke-width="0.90" stroke-opacity="0.30" stroke-linecap="round"/>
<polyline points="843,18 847,24 851,30 855,36 858,42 861,48 863,55 865,61 866,68 867,75 866,82 865,89 863,96 861,103 858,109 854,115 850,120 845,126 840,131 835,135 830,140 824,144 818,148 812,152 806,155 800,159 794,162 788,165 782,168 775,172 769,175 763,178 757,181 751,185 745,188 739,192 733,196" fill="none" stroke="#5fabe8" stroke-width="0.71" stroke-opacity="0.29" stroke-linecap="round"/>
<polyline points="178,41 184,38 190,34 197,31 203,27 209,24 215,21 221,17 227,14 233,11 240,8 246,5 253,2 259,-0 266,-3 272,-4 279,-6 286,-7 293,-8 300,-8 307,-7 314,-6 321,-5 328,-2 334,0 340,3 347,6 353,10 359,13 365,17 370,21 376,25 382,29 388,33 394,37 400,40 405,44 411,48 417,52 423,56 429,60 435,64 440,68 446,72 452,75 458,79 463,84 469,88 475,92 480,96 486,101 491,105 496,110 501,115 506,119 511,124 516,130 521,135 525,140 530,145 534,151 538,157 542,162 547,168 551,173 555,179 559,185 563,190 567,196" fill="none" stroke="#5faae7" stroke-width="1.02" stroke-opacity="0.43" stroke-linecap="round"/>
<polyline points="59,96 65,98 72,100 79,101 86,102 93,103 100,104 107,103 114,103 121,101 127,99 134,97 140,94 146,91 152,87 158,83 164,79 169,74 174,70 180,65 185,60 190,56 195,51 200,46 205,42 211,37 216,33 222,28 227,24 233,20 239,16 245,13 251,10 258,7 264,4 271,2 277,-0 284,-2 291,-3 298,-4 305,-4 312,-3 319,-2 326,0 332,3 339,5 345,8 351,11 357,15 363,18 369,22 375,26 381,29 387,33 393,37 399,41 405,45 411,49 416,52 422,56 428,60 434,64 440,68 446,72 452,76 457,80 463,84 469,88 474,92 480,96" fill="none" stroke="#5faae7" stroke-width="0.86" stroke-opacity="0.29" stroke-linecap="round"/>
<polyline points="820,126 815,130 809,133 802,137 796,140 790,143 783,145 777,148 770,151 764,153 757,155 751,158 744,160 738,163 731,165 725,168 718,171 712,175 706,178 700,182 695,186 690,191 685,196" fill="none" stroke="#60aae6" stroke-width="1.06" stroke-opacity="0.15" stroke-linecap="round"/>
<polyline points="43,144 49,147 55,150 62,153 69,155 75,157 82,158 89,159 96,159 103,159 110,158 117,156 124,154 130,151 136,148 142,144 147,140 153,135 158,130 162,125 166,119 170,113 174,107 178,101 182,96 185,90 189,84 193,78 196,72 200,66 204,60 208,55 213,49 217,44 222,39 227,34 232,29 238,25 244,21 249,17 255,13 262,10 268,7 275,5 281,3 288,1 295,-0 302,-1 309,-0 316,1 323,2 329,4 336,6 343,9 349,12 355,15 361,18 367,22 373,26 379,29 385,33 391,37 397,40 403,44 409,48 415,52 421,56 426,59 432,63 438,67" fill="none" stroke="#60aae6" stroke-width="1.01" stroke-opacity="0.42" stroke-linecap="round"/>
<polyline points="148,78 154,75 160,71 166,67 171,63 177,59 183,55 188,50 194,46 199,42 205,37 210,33 216,29 222,25 227,21 233,17 239,14 245,10 252,7 258,5 265,2 271,-0 278,-2 285,-4 292,-4 299,-5 306,-5 313,-4 320,-2 326,-0 333,2 339,5 346,8 352,11 358,14 364,18 370,22 376,26 382,29 388,33 393,37 399,41 405,45 411,49 417,52 423,56 428,60 434,64 440,68 446,72 452,76 458,80 463,84 469,88 475,92 480,96 485,101 491,105 496,110 501,115 506,119 511,124 516,130 521,135 525,140 530,146 534,151 538,157 542,162 547,168" fill="none" stroke="#60aae5" stroke-width="0.93" stroke-opacity="0.38" stroke-linecap="round"/>
<polyline points="272,87 273,80 274,73 275,66 278,60 281,53 285,47 289,42 294,37 300,33 306,30 313,28 320,27 327,26 334,26 341,27 348,28 354,30 361,32 368,34 374,36 381,39 387,42 393,45 400,48 406,52 412,55 418,58 424,62 430,65 436,69 442,72 448,76 454,80 460,84 466,88 471,92 477,96 483,100 488,105 493,109 499,114 504,118 509,123 514,128 519,133 523,139 528,144 532,149 536,155 541,161 545,166 549,172 553,177 557,183 562,189 566,194 570,200" fill="none" stroke="#60aae5" stroke-width="1.01" stroke-opacity="0.31" stroke-linecap="round"/>
<polyline points="657,132 652,137 648,143 644,148 640,154 636,160 633,166 630,173 628,179 626,186 624,193 623,200" fill="none" stroke="#61a9e4" stroke-width="1.02" stroke-opacity="0.27" stroke-linecap="round"/>
<polyline points="719,77 715,82 711,88 706,93 701,98 696,103 691,108 686,113 681,118 676,122 671,127 666,132 661,137 656,142 652,148 647,153 643,159 640,165 636,171 633,177 631,184 629,191 627,198" fill="none" stroke="#61a9e4" stroke-width="1.46" stroke-opacity="0.26" stroke-linecap="round"/>
<polyline points="56,87 62,90 69,92 76,93 83,95 90,96 96,96 103,96 110,96 117,95 124,94 131,92 138,89 144,86 150,83 156,79 162,75 167,71 173,67 178,62 184,58 189,53 194,49 200,44 205,40 210,35 216,31 221,27 227,23 233,19 239,15 245,12 251,9 258,6 264,3 271,1 278,-1 284,-3 291,-4 298,-4 305,-4 312,-3 319,-2 326,-0 332,2 339,5 345,8 351,11 358,15 364,18 370,22 375,26 381,29 387,33 393,37 399,41 405,45 411,49 416,52 422,56 428,60 434,64 440,68 446,72 452,76 457,79 463,84 469,88 474,92 480,96" fill="none" stroke="#61a9e3" stroke-width="0.72" stroke-opacity="0.21" stroke-linecap="round"/>
<polyline points="228,111 228,104 228,97 228,90 229,83 231,76 232,69 235,62 238,56 241,50 245,44 249,38 254,33 259,28 264,24 270,20 276,16 282,14 289,11 296,9 303,8 310,8 317,8 324,9 330,10 337,12 344,15 350,17 357,20 363,23 369,26 375,30 381,33 387,37 393,40 399,44 405,48 411,51 417,55 423,59 429,62 435,66 441,70 447,74 453,77 459,81 464,85 470,89 476,94 481,98 487,102 492,107 497,111 502,116 507,121 512,126 517,131 522,136 526,142 531,147 535,153 539,158 543,164 548,169 552,175 556,181 560,186 564,192 568,198" fill="none" stroke="#62a9e3" stroke-width="1.11" stroke-opacity="0.42" stroke-linecap="round"/>
<polyline points="421,70 427,72 434,75 440,78 446,81 452,84 458,88 464,92 470,95 476,99 482,103 488,107 493,112 498,116 504,121 509,126 514,131 519,136 523,141 528,146 532,151 537,157 541,162 545,168 550,173 554,179 558,185 562,190 566,196" fill="none" stroke="#62a9e3" stroke-width="0.74" stroke-opacity="0.18" stroke-linecap="round"/>
<polyline points="789,13 791,19 793,26 794,33 794,40 794,47 793,54 791,61 788,67 784,73 780,79 775,84 770,89 765,93 759,97 753,101 747,105 741,108 735,112 729,115 723,118 717,121 710,125 704,128 698,132 692,135 686,139 681,143 675,147 670,152 665,156 660,161 655,167 651,172 647,178 644,184 641,191 638,197" fill="none" stroke="#62a9e2" stroke-width="0.71" stroke-opacity="0.25" stroke-linecap="round"/>
<polyline points="34,-1 40,2 47,5 53,7 59,10 66,13 72,16 79,19 85,21 92,23 98,26 105,27 112,29 119,30 126,31 133,31 140,31 147,31 154,30 161,29 167,28 174,26 181,24 188,22 194,19 201,17 207,14 214,12 220,9 227,6 233,4 240,1 246,-1 253,-4 259,-6 266,-8 273,-9 280,-10 287,-11 294,-12 301,-12 308,-11 315,-9 321,-8 328,-5 334,-2 341,1 347,4 353,8 359,11 365,15 370,19 376,23 382,27 388,31 393,35 399,39 405,43 411,47 416,51 422,55 428,59 434,63 440,67 445,71 451,75 457,79 463,83 468,87 474,91" fill="none" stroke="#62a9e2" stroke-width="1.38" stroke-opacity="0.31" stroke-linecap="round"/>
<polyline points="682,-10 689,-7 695,-4 701,0 706,5 710,10 714,16 717,22 720,29 721,36 722,43 721,50 720,57 718,63 715,70 712,76 708,82 704,88 700,93 695,98 691,104 686,109 681,114 676,119 671,124 666,129 661,134 657,139 652,144 648,150 644,155 640,161 636,167 633,174 631,180 628,187 627,194" fill="none" stroke="#63a8e1" stroke-width="1.37" stroke-opacity="0.22" stroke-linecap="round"/>
<polyline points="10,35 17,35 24,36 30,37 37,39 44,41 51,43 57,45 64,47 71,49 78,51 84,52 91,54 98,55 105,56 112,57 119,57 126,56 133,55 140,54 147,53 153,51 160,48 166,46 173,43 179,40 185,36 192,33 198,30 204,26 210,23 216,20 222,16 228,13 235,10 241,7 247,4 254,1 260,-1 267,-3 274,-5 281,-6 288,-7 295,-8 302,-8 309,-7 315,-6 322,-4 329,-2 335,1 342,4 348,7 354,10 360,14 366,18 372,22 377,25 383,29 389,33 395,37 401,41 406,45 412,49 418,53 424,57 430,61 436,64 441,68 447,72 453,76" fill="none" stroke="#63a8e1" stroke-width="1.48" stroke-opacity="0.24" stroke-linecap="round"/>
<polyline points="136,125 142,121 147,117 153,113 158,108 163,103 168,98 172,93 177,87 181,82 185,76 189,71 194,65 198,60 203,54 207,49 212,44 217,39 222,34 228,30 233,25 239,21 245,17 251,14 257,10 263,7 270,5 276,2 283,1 290,-1 297,-2 304,-2 311,-1 318,-0 324,1 331,4 338,6 344,9 350,12 356,15 363,19 369,22 375,26 380,30 386,33 392,37 398,41 404,45 410,49 416,52 422,56 428,60 433,64 439,68 445,71 451,75 457,79 462,83 468,87 474,92 479,96 485,100 490,105 495,109 501,114 506,119 511,124 515,129 520,134 525,140" fill="none" stroke="#63a8e1" stroke-width="1.35" stroke-opacity="0.25" stroke-linecap="round"/>
<polyline points="878,37 883,42 887,47 892,52 896,58 900,64 903,70 906,77 908,83 910,90 911,97 912,104 912,111 911,118 910,125 908,131 905,138 903,144 900,151 897,157 894,163 890,169 887,176 884,182 881,188 879,195" fill="none" stroke="#63a8e0" stroke-width="1.37" stroke-opacity="0.29" stroke-linecap="round"/>
<polyline points="310,-4 317,-3 324,-1 330,1 337,4 343,7 350,10 356,13 362,17 368,21 374,24 379,28 385,32 391,36 397,40 403,43 409,47 415,51 420,55 426,59 432,63 438,66 444,70 450,74 455,78 461,82 467,86 472,90 478,95 484,99 489,104 494,108 499,113 504,118 509,123 514,128 519,133 523,138 528,144 532,149 537,155 541,160 545,166 549,171 553,177 557,183 562,188 566,194 570,200" fill="none" stroke="#64a8e0" stroke-width="1.56" stroke-opacity="0.26" stroke-linecap="round"/>
<polyline points="673,86 670,92 667,98 664,105 660,110 656,116 652,122 648,128 645,134 641,140 637,146 634,152 630,158 627,164 625,171 623,178 621,184 620,191 619,198" fill="none" stroke="#64a8df" stroke-width="1.30" stroke-opacity="0.36" stroke-linecap="round"/>
<polyline points="915,66 920,72 924,77 928,83 931,89 934,96 937,102 940,108 942,115 943,122 944,129 945,136 945,143 945,150 944,157 943,164 942,171 940,177 939,184 937,191 936,198" fill="none" stroke="#64a8df" stroke-width="0.94" stroke-opacity="0.41" stroke-linecap="round"/>
<polyline points="842,133 837,138 831,142 826,147 820,151 814,154 808,158 802,162 796,165 790,168 784,172 777,175 771,179 765,182 759,186 753,189 748,193 742,197" fill="none" stroke="#64a7df" stroke-width="1.49" stroke-opacity="0.28" stroke-linecap="round"/>
<polyline points="471,20 476,25 480,31 484,36 488,42 493,47 497,53 501,59 505,64 509,70 513,76 516,82 520,88 523,94 527,100 530,107 533,113 536,119 539,126 542,132 544,138 547,145 550,151 553,158 556,164 559,170 562,177 565,183 569,189 572,195" fill="none" stroke="#65a7de" stroke-width="1.36" stroke-opacity="0.41" stroke-linecap="round"/>
<polyline points="465,-1 469,5 474,10 478,15 483,21 487,26 492,32 496,37 500,43 504,48 509,54 513,59 517,65 520,71 524,77 527,83 530,90 534,96 536,102 539,109 542,115 544,122 546,128 549,135 551,142 553,148 556,155 558,161 561,168 564,174 567,181 570,187 573,193 576,199" fill="none" stroke="#65a7de" stroke-width="0.88" stroke-opacity="0.21" stroke-linecap="round"/>
<polyline points="358,61 365,60 372,59 379,59 386,60 393,61 400,62 407,64 413,66 420,69 426,72 433,74 439,77 445,80 452,84 458,87 464,91 470,95 475,98 481,102 487,107 492,111 498,115 503,120 508,125 513,130 518,135 523,140 527,145 532,150 536,156 541,161 545,167 549,173 553,178 557,184 562,189 566,195" fill="none" stroke="#65a7dd" stroke-width="1.45" stroke-opacity="0.29" stroke-linecap="round"/>
<polyline points="616,40 621,45 626,50 629,56 632,62 634,69 636,76 636,83 636,90 635,97 633,104 631,110 629,117 627,124 624,130 622,137 619,143 617,150 615,157 613,163 611,170 610,177 609,184 609,191 609,198" fill="none" stroke="#66a7dd" stroke-width="1.05" stroke-opacity="0.32" stroke-linecap="round"/>
<polyline points="804,138 798,141 791,144 785,147 778,150 772,152 765,155 759,157 752,160 746,162 739,165 733,167 726,170 720,173 714,177 708,180 702,184 697,189 691,193 687,198" fill="none" stroke="#66a7dd" stroke-width="1.58" stroke-opacity="0.24" stroke-linecap="round"/>
<polyline points="476,27 480,33 484,38 489,44 493,49 497,55 501,61 505,66 509,72 513,78 516,84 520,90 523,96 527,102 530,108 533,115 536,121 539,127 542,134 545,140 547,147 550,153 553,159 556,166 559,172 562,178 566,184 569,190 573,196" fill="none" stroke="#66a6dc" stroke-width="1.43" stroke-opacity="0.24" stroke-linecap="round"/>
<polyline points="479,3 484,8 489,14 494,19 499,24 503,29 508,34 513,39 517,45 521,50 526,56 530,62 533,68 537,74 540,80 543,86 545,93 548,99 550,106 552,113 554,120 555,126 557,133 558,140 560,147 562,154 564,160 566,167 568,174 570,180 573,187 576,193 579,199" fill="none" stroke="#66a6dc" stroke-width="1.35" stroke-opacity="0.23" stroke-linecap="round"/>
<polyline points="-42,-15 -35,-18 -29,-21 -22,-23 -15,-24 -8,-25 -1,-25 6,-25 12,-23 19,-22 26,-19 32,-17 39,-14 45,-11 51,-7 57,-4 63,-1 70,3 76,6 82,9 88,12 95,15 101,17 108,19 115,21 122,22 129,23 136,24 143,24 150,24 157,24 164,23 170,22 177,20 184,18 191,16 197,14 204,12 211,10 217,7 224,5 230,2 237,-0 243,-3 250,-5 257,-7 264,-9 270,-10 277,-12 284,-13 291,-13 298,-13 305,-12 312,-11 319,-10 325,-7 332,-5 338,-2 344,2 350,5 356,9 362,13 368,17 374,21 379,25 385,29 391,33 397,37 402,41 408,45" fill="none" stroke="#67a6db" stroke-width="0.83" stroke-opacity="0.18" stroke-linecap="round"/>
<polyline points="797,-23 802,-19 808,-15 813,-10 818,-5 823,0 827,6 832,11 836,17 840,22 843,28 847,35 850,41 852,48 854,54 855,61 855,68 855,75 854,82 852,89 849,95 846,101 842,107 837,113 833,118 827,122 822,127 816,131 810,135 804,138 798,141 792,144 785,147 779,150 772,152 766,155 759,157 753,160 746,162 740,165 733,167 727,170 720,173 714,177 708,180 702,184 697,189 692,193 687,198" fill="none" stroke="#67a6db" stroke-width="1.21" stroke-opacity="0.24" stroke-linecap="round"/>
<polyline points="598,62 602,69 604,75 606,82 607,89 608,96 608,103 607,110 606,117 605,124 604,130 603,137 601,144 600,151 599,158 598,165 597,172 597,179 597,186 598,193 599,200" fill="none" stroke="#67a6db" stroke-width="0.79" stroke-opacity="0.43" stroke-linecap="round"/>
<polyline points="355,7 361,11 367,15 373,19 378,23 384,27 390,31 395,36 401,40 407,44 412,48 418,52 424,56 430,60 436,63 441,67 447,71 453,75 459,79 464,84 470,88 475,92 481,96 486,101 492,105 497,110 502,115 507,120 512,125 516,130 521,135 526,140 530,146 534,151 539,157 543,163 547,168 551,174 555,180 559,185 563,191 568,197" fill="none" stroke="#67a6da" stroke-width="1.05" stroke-opacity="0.15" stroke-linecap="round"/>
<polyline points="143,59 149,57 156,55 162,52 169,49 175,46 181,42 187,39 193,35 199,32 205,28 211,24 217,21 223,17 229,14 236,11 242,8 248,5 255,2 261,-0 268,-2 275,-4 282,-6 288,-7 295,-7 302,-7 309,-6 316,-5 323,-3 330,-1 336,2 342,5 349,8 355,11 361,15 367,19 373,22 378,26 384,30 390,34 396,38 402,42 407,46 413,50 419,54 425,57 431,61 437,65 442,69 448,73 454,77 460,81 465,85 471,89 477,93 482,98 487,102 493,107 498,112 503,116 508,121 513,126 518,131 522,137 527,142 531,148 535,153 540,159 544,164 548,170" fill="none" stroke="#68a6da" stroke-width="1.46" stroke-opacity="0.21" stroke-linecap="round"/>
<polyline points="-35,69 -29,67 -22,64 -16,63 -9,61 -2,60 5,60 12,60 19,61 26,62 33,64 40,66 46,68 53,70 60,72 66,74 73,76 80,77 87,79 94,80 101,80 108,80 115,80 122,79 129,78 135,76 142,74 148,71 155,68 161,65 167,61 173,57 179,53 184,49 190,45 196,41 201,37 207,33 213,29 219,25 224,21 230,17 236,14 243,11 249,7 255,5 262,2 268,-0 275,-2 282,-4 289,-5 296,-6 303,-6 310,-5 317,-4 323,-2 330,0 337,3 343,6 349,9 355,13 361,16 367,20 373,24 379,27 385,31 391,35 396,39 402,43 408,47" fill="none" stroke="#68a5d9" stroke-width="1.30" stroke-opacity="0.22" stroke-linecap="round"/>
<polyline points="392,1 397,7 401,12 405,18 410,23 414,28 419,33 424,38 429,43 434,48 439,53 444,58 450,62 455,67 460,72 465,76 471,81 476,85 481,90 486,95 491,100 496,104 501,109 506,114 511,120 515,125 520,130 524,136 529,141 533,147 537,152 541,158 545,164 549,170 553,175 557,181 561,187 565,193 569,198" fill="none" stroke="#68a5d9" stroke-width="1.48" stroke-opacity="0.40" stroke-linecap="round"/>
<polyline points="260,27 265,23 271,19 277,16 284,13 290,11 297,9 304,8 311,8 318,8 325,9 332,11 339,13 345,15 352,18 358,21 364,24 371,27 377,31 383,34 389,38 395,41 401,45 407,48 413,52 419,56 425,59 431,63 437,67 442,71 448,74 454,78 460,82 466,86 471,90 477,95 482,99 488,103 493,108 498,112 503,117 508,122 513,127 518,132 523,138 527,143 532,148 536,154 540,159 544,165 549,171 553,176 557,182 561,188 565,193 569,199" fill="none" stroke="#68a5d9" stroke-width="1.50" stroke-opacity="0.42" stroke-linecap="round"/>
<polyline points="49,85 55,87 62,90 69,92 76,93 82,95 89,96 96,96 103,97 110,96 117,95 124,94 131,92 137,89 144,86 150,83 156,80 162,76 167,71 173,67 178,63 183,58 189,53 194,49 199,44 205,40 210,35 216,31 221,27 227,23 233,19 239,15 245,12 251,9 257,6 264,3 271,1 277,-1 284,-3 291,-4 298,-4 305,-4 312,-3 319,-2 326,-0 332,2 339,5 345,8 351,11 357,14 363,18 369,22 375,25 381,29 387,33 393,37 399,41 405,45 410,48 416,52 422,56 428,60 434,64 440,68 445,71 451,75 457,79 463,83 468,87 474,92" fill="none" stroke="#69a5d8" stroke-width="1.29" stroke-opacity="0.17" stroke-linecap="round"/>
<polyline points="526,86 529,93 532,99 535,105 538,112 540,118 543,125 546,131 548,138 550,145 553,151 555,158 558,164 561,170 564,177 567,183 570,189 574,195" fill="none" stroke="#69a5d8" stroke-width="0.97" stroke-opacity="0.35" stroke-linecap="round"/>
<polyline points="518,139 523,144 528,149 532,154 537,160 541,165 546,171 550,176 555,181 559,187 563,193 567,198" fill="none" stroke="#69a5d7" stroke-width="1.17" stroke-opacity="0.26" stroke-linecap="round"/>
<polyline points="912,140 910,147 907,153 904,160 901,166 898,172 895,179 893,185 890,192 888,198" fill="none" stroke="#6aa5d7" stroke-width="1.07" stroke-opacity="0.36" stroke-linecap="round"/>
<polyline points="272,79 273,72 274,65 277,58 280,52 284,46 289,41 294,37 300,33 306,30 313,27 319,26 326,25 333,25 340,26 347,27 354,29 361,31 367,33 374,36 380,39 387,42 393,45 399,48 405,51 412,55 418,58 424,61 430,65 436,68 442,72 448,76 454,80 460,83 465,87 471,91 477,96 482,100 488,104 493,109 498,113 503,118 508,123 513,128 518,133 523,138 527,144 532,149 536,155 540,160 545,166 549,171 553,177 557,183 561,188 565,194 570,199" fill="none" stroke="#6aa4d7" stroke-width="0.98" stroke-opacity="0.40" stroke-linecap="round"/>
<polyline points="-7,57 0,56 7,56 14,56 21,57 28,58 35,60 42,61 48,63 55,65 62,67 68,69 75,71 82,73 89,74 96,75 103,75 110,76 117,75 124,74 131,73 137,71 144,69 151,66 157,63 163,60 169,57 175,53 181,49 187,45 193,41 198,37 204,33 210,29 216,25 222,22 228,18 234,15 240,11 246,8 252,5 259,2 265,0 272,-2 279,-4 286,-5 293,-6 300,-6 307,-6 314,-5 321,-3 327,-1 334,1 340,4 346,7 353,11 359,14 365,18 370,22 376,25 382,29 388,33 394,37 400,41 406,45 411,49 417,53 423,56 429,60 435,64" fill="none" stroke="#6aa4d6" stroke-width="0.92" stroke-opacity="0.24" stroke-linecap="round"/>
<polyline points="139,48 145,46 152,45 159,43 166,41 172,38 179,35 185,33 191,30 198,26 204,23 210,20 216,17 223,14 229,11 235,8 242,5 248,2 255,-0 261,-3 268,-5 275,-6 282,-8 288,-9 295,-9 302,-9 309,-8 316,-7 323,-5 330,-2 336,0 342,3 349,7 355,10 361,14 366,18 372,22 378,25 384,29 390,33 395,37 401,41 407,45 413,49 419,53 424,57 430,61 436,65 442,69 448,72 453,76 459,80 465,85 470,89 476,93 482,97 487,102 492,106 497,111 503,116 508,121 512,126 517,131 522,136 526,141 531,147 535,152 539,158 543,164 548,169" fill="none" stroke="#6aa4d6" stroke-width="1.32" stroke-opacity="0.25" stroke-linecap="round"/>
<polyline points="-28,17 -21,14 -15,12 -8,10 -1,9 6,8 13,8 20,9 26,11 33,12 40,14 47,17 53,19 60,22 66,24 73,27 79,29 86,31 93,33 99,35 106,36 113,38 120,38 127,39 134,39 141,38 148,37 155,36 162,35 169,33 175,31 182,28 188,26 195,23 201,20 208,17 214,14 220,11 227,9 233,6 240,3 246,1 253,-2 259,-4 266,-6 273,-8 280,-9 287,-10 294,-10 301,-10 308,-10 314,-8 321,-7 328,-4 334,-2 341,1 347,5 353,8 359,12 365,16 370,20 376,24 382,28 388,32 393,36 399,40 405,44 411,47 417,51 422,55" fill="none" stroke="#6ba4d5" stroke-width="0.93" stroke-opacity="0.16" stroke-linecap="round"/>
<polyline points="655,19 661,24 665,29 670,34 673,40 675,47 677,54 677,61 677,68 676,75 674,81 672,88 669,94 665,101 662,107 658,113 654,118 651,124 647,130 643,136 639,142 636,148 632,154 629,160 626,167 624,173 622,180 620,187 619,194" fill="none" stroke="#6ba4d5" stroke-width="1.35" stroke-opacity="0.37" stroke-linecap="round"/>
<polyline points="21,-5 28,-3 35,-1 41,2 47,5 54,8 60,10 67,13 73,16 80,19 86,21 93,24 99,26 106,28 113,29 120,30 127,31 134,31 141,31 148,31 155,30 162,29 168,27 175,26 182,24 189,21 195,19 202,16 208,14 215,11 221,8 228,6 234,3 241,1 247,-2 254,-4 260,-6 267,-8 274,-9 281,-11 288,-11 295,-12 302,-11 309,-11 316,-9 322,-7 329,-5 335,-2 342,1 348,5 354,8 360,12 365,16 371,20 377,24 383,28 388,32 394,36 400,40 406,44 412,48 417,52 423,56 429,59 435,63 441,67 446,71 452,75 458,79 463,83" fill="none" stroke="#6ba4d5" stroke-width="0.80" stroke-opacity="0.22" stroke-linecap="round"/>
<polyline points="406,63 413,65 419,68 426,70 432,73 438,76 444,79 451,83 457,86 463,90 469,94 474,97 480,101 486,106 491,110 497,114 502,119 507,124 512,129 517,134 522,139 526,144 531,149 535,155 540,160 544,166 548,171 552,177 557,183 561,188 565,194 569,199" fill="none" stroke="#6ba4d4" stroke-width="1.45" stroke-opacity="0.38" stroke-linecap="round"/>
<polyline points="43,100 49,103 56,105 63,107 69,109 76,111 83,112 90,113 97,114 104,114 111,113 118,112 124,110 131,108 137,105 144,101 149,98 155,93 161,89 166,84 171,80 176,75 181,70 186,65 191,60 195,55 200,50 205,45 211,40 216,35 221,31 227,27 232,22 238,19 244,15 250,11 256,8 263,5 269,3 276,1 283,-1 290,-2 297,-3 304,-3 311,-2 318,-1 324,0 331,3 338,5 344,8 350,11 356,14 362,18 368,22 374,25 380,29 386,33 392,37 398,40 404,44 410,48 415,52 421,56 427,60 433,63 439,67 445,71 451,75 456,79 462,83" fill="none" stroke="#6ca3d4" stroke-width="0.84" stroke-opacity="0.40" stroke-linecap="round"/>
<polyline points="770,37 769,44 768,51 766,57 763,64 760,70 755,75 751,81 746,86 741,90 735,95 730,99 724,103 718,107 713,111 707,115 701,119 695,123 689,127 684,131 678,135 673,140 668,144 663,149 658,154 653,160 649,165 645,171 641,177 638,183 636,190 634,196" fill="none" stroke="#6ca3d3" stroke-width="1.16" stroke-opacity="0.15" stroke-linecap="round"/>
<polyline points="30,9 37,11 44,13 50,16 57,18 63,21 70,24 76,26 83,28 89,31 96,32 103,34 110,35 117,37 124,37 131,37 138,37 145,37 152,36 159,34 165,33 172,31 179,28 185,26 192,23 198,21 205,18 211,15 217,12 224,9 230,7 237,4 243,1 250,-1 256,-3 263,-5 270,-7 277,-9 284,-10 291,-11 298,-11 305,-10 311,-9 318,-8 325,-6 331,-3 338,-0 344,3 350,7 356,10 362,14 368,18 374,22 379,26 385,30 391,34 397,38 402,42 408,46 414,50 420,54 426,57 431,61 437,65 443,69 449,73 455,77 460,81 466,85 472,89" fill="none" stroke="#6ca3d3" stroke-width="0.80" stroke-opacity="0.38" stroke-linecap="round"/>
<polyline points="-22,30 -15,27 -8,25 -2,23 5,22 12,22 19,23 26,24 33,25 40,27 47,29 53,31 60,34 66,36 73,38 80,40 87,42 93,44 100,45 107,46 114,47 121,47 128,47 135,47 142,46 149,44 156,43 162,41 169,38 175,36 182,33 188,30 195,27 201,24 207,21 213,18 220,15 226,12 232,9 239,6 245,3 252,0 258,-2 265,-4 272,-6 278,-7 285,-8 292,-9 299,-9 306,-9 313,-8 320,-6 327,-4 333,-1 340,2 346,5 352,8 358,12 364,16 370,20 375,24 381,28 387,32 393,35 399,39 404,43 410,47 416,51 422,55 428,59" fill="none" stroke="#6ca3d2" stroke-width="0.85" stroke-opacity="0.26" stroke-linecap="round"/>
<polyline points="145,101 151,97 157,93 162,88 167,84 172,79 177,74 182,69 187,64 192,59 197,54 202,49 207,44 212,39 217,34 222,30 228,26 234,22 240,18 246,14 252,11 258,8 264,5 271,3 278,0 284,-1 291,-2 298,-3 305,-3 312,-2 319,-1 326,1 333,3 339,6 345,9 352,12 358,15 364,19 370,22 376,26 382,30 387,34 393,38 399,41 405,45 411,49 417,53 423,57 429,60 434,64 440,68 446,72 452,76 458,80 463,84 469,88 475,92 480,97 486,101 491,105 496,110 501,115 506,120 511,125 516,130 521,135 525,140 530,146 534,151 538,157" fill="none" stroke="#6da3d2" stroke-width="1.36" stroke-opacity="0.29" stroke-linecap="round"/>
<polyline points="-20,7 -13,5 -6,3 1,2 8,2 15,3 22,4 28,6 35,8 42,10 48,13 55,15 61,18 68,21 74,23 81,26 88,28 94,30 101,32 108,33 115,35 122,35 129,36 136,36 143,35 150,35 156,34 163,32 170,30 177,28 183,26 190,23 196,21 203,18 209,15 216,12 222,10 229,7 235,4 241,2 248,-1 255,-3 261,-5 268,-7 275,-9 282,-10 289,-11 296,-11 303,-11 310,-10 317,-8 323,-6 330,-4 336,-1 342,2 349,6 355,9 360,13 366,17 372,21 378,25 384,29 389,33 395,37 401,41 407,45 412,49 418,52 424,56 430,60" fill="none" stroke="#6da3d2" stroke-width="1.41" stroke-opacity="0.39" stroke-linecap="round"/>
<polyline points="581,17 587,19 594,21 600,24 607,26 613,30 619,33 624,38 629,43 634,48 637,54 640,61 642,67 643,74 643,81 643,88 641,95 640,102 638,109 635,115 633,122 630,128 627,134 624,141 622,147 619,154 617,161 615,167 613,174 612,181 611,188 611,195" fill="none" stroke="#6da3d1" stroke-width="1.10" stroke-opacity="0.14" stroke-linecap="round"/>
<polyline points="739,73 735,79 730,84 725,89 720,94 715,99 709,103 704,108 699,112 693,116 688,121 682,125 677,130 672,134 666,139 661,144 657,149 652,154 648,160 644,166 640,172 637,178 634,184 632,191 630,198" fill="none" stroke="#6ea2d1" stroke-width="1.53" stroke-opacity="0.27" stroke-linecap="round"/>
<polyline points="-46,114 -39,113 -32,112 -25,112 -18,113 -12,114 -5,116 2,118 9,120 15,123 21,126 28,129 34,132 40,135 46,138 53,141 59,144 66,146 72,148 79,150 86,151 93,151 100,151 107,151 114,149 121,148 127,145 134,142 140,138 145,134 151,130 156,125 160,120 165,114 169,109 173,103 177,97 181,91 185,86 189,80 193,74 197,68 201,62 205,57 209,51 214,46 219,41 224,36 229,31 234,27 240,23 245,19 251,15 257,11 264,8 270,6 277,3 284,1 290,0 297,-1 304,-1 311,-0 318,1 325,2 332,4 338,7 345,10 351,13 357,16 363,19" fill="none" stroke="#6ea2d0" stroke-width="1.46" stroke-opacity="0.34" stroke-linecap="round"/>
<polyline points="765,-1 769,5 772,11 774,18 776,24 777,31 777,38 777,45 775,52 773,59 770,65 766,71 762,77 758,82 753,87 747,91 742,96 736,100 730,104 724,107 718,111 712,115 707,119 701,122 695,126 689,130 683,134 678,138 672,143 667,147 662,152 657,157 653,163 648,168 645,174 641,180 638,187 636,193 634,200" fill="none" stroke="#6ea2d0" stroke-width="0.88" stroke-opacity="0.25" stroke-linecap="round"/>
<polyline points="78,48 85,50 92,51 99,53 106,53 113,54 120,54 127,54 134,53 141,52 148,50 154,48 161,46 167,44 174,41 180,38 186,35 193,31 199,28 205,25 211,21 217,18 223,15 230,12 236,9 242,6 249,3 255,0 262,-2 269,-4 275,-6 282,-7 289,-8 296,-8 303,-8 310,-7 317,-6 324,-4 330,-2 337,1 343,4 349,7 355,11 361,15 367,18 373,22 379,26 385,30 390,34 396,38 402,42 408,46 414,50 419,54 425,57 431,61 437,65 443,69 448,73 454,77 460,81 466,85 471,89 477,94 482,98 488,102 493,107 498,112 503,116 508,121" fill="none" stroke="#6ea2d0" stroke-width="0.75" stroke-opacity="0.32" stroke-linecap="round"/>
<polyline points="289,89 290,82 291,76 293,69 296,62 300,56 304,51 309,46 315,43 321,40 328,38 335,36 342,36 349,36 356,37 363,38 370,40 376,42 383,45 389,47 396,50 402,53 409,56 415,59 421,62 427,65 433,69 439,72 445,76 451,79 457,83 463,87 469,91 475,95 480,99 486,103 491,108 497,112 502,117 507,122 512,127 517,132 521,137 526,142 530,148 535,153 539,159 543,164 548,170 552,176 556,181 560,187 564,192 568,198" fill="none" stroke="#6fa2cf" stroke-width="1.51" stroke-opacity="0.23" stroke-linecap="round"/>
<polyline points="650,75 650,82 649,89 647,96 645,102 643,109 640,115 637,122 634,128 631,134 628,141 625,147 622,153 620,160 618,167 616,173 614,180 613,187 613,194" fill="none" stroke="#6fa2cf" stroke-width="1.03" stroke-opacity="0.40" stroke-linecap="round"/>
<polyline points="670,83 668,90 665,96 662,102 659,108 655,114 651,120 647,126 644,132 640,138 636,144 633,150 630,156 627,163 624,169 622,176 620,183 619,190 618,196" fill="none" stroke="#6fa2ce" stroke-width="1.13" stroke-opacity="0.18" stroke-linecap="round"/>
<polyline points="279,147 276,141 274,134 271,128 269,121 267,114 265,108 264,101 263,94 262,87 262,80 263,73 265,66 267,59 270,53 273,47 278,41 282,36 288,32 294,28 300,25 307,23 313,21 320,21 327,21 334,21 341,23 348,24 355,26 361,29 368,31 374,34 381,37 387,40 393,43 399,47 405,50 411,54 418,57 424,61 430,64 436,68 442,71 447,75 453,79 459,83 465,87 471,91 476,95 482,99 487,104 493,108 498,113 503,117 508,122 513,127 518,132 522,138 527,143 531,148 536,154 540,159 544,165 548,171 553,176 557,182 561,188 565,193 569,199" fill="none" stroke="#6fa1ce" stroke-width="0.73" stroke-opacity="0.33" stroke-linecap="round"/>
<polyline points="217,116 218,109 218,102 219,95 220,89 221,82 223,75 225,68 228,62 231,56 234,49 238,44 243,38 247,33 252,28 258,24 264,20 270,16 276,13 282,10 289,8 296,7 303,6 310,6 317,6 324,7 330,9 337,11 344,13 350,16 356,19 363,22 369,25 375,29 381,32 387,36 393,40 399,43 405,47 411,51 417,54 423,58 429,62 435,65 441,69 446,73 452,77 458,81 464,85 469,89 475,93 481,97 486,102 491,106 497,111 502,116 507,121 512,126 517,131 521,136 526,141 530,147 535,152 539,158 543,163 547,169 551,174 555,180 560,186 564,191" fill="none" stroke="#70a1ce" stroke-width="1.03" stroke-opacity="0.37" stroke-linecap="round"/>
<polyline points="-22,149 -15,151 -9,155 -3,158 3,162 8,166 14,170 20,174 26,178 31,182 37,185 44,189 50,192 56,195 63,197 70,199" fill="none" stroke="#70a1cd" stroke-width="1.33" stroke-opacity="0.16" stroke-linecap="round"/>
<polyline points="487,-1 492,4 497,8 502,13 508,18 513,22 518,27 523,32 528,37 533,42 537,47 542,52 546,58 550,64 553,70 556,76 559,83 561,89 563,96 565,103 566,110 567,117 568,124 569,131 569,138 570,145 571,152 572,159 573,165 575,172 576,179 578,186 581,192 583,199" fill="none" stroke="#71a1cc" stroke-width="1.20" stroke-opacity="0.18" stroke-linecap="round"/>
<polyline points="773,12 776,18 777,25 778,32 778,39 778,46 776,53 774,59 771,66 767,72 763,77 758,82 753,87 748,92 742,96 737,100 731,104 725,108 719,111 713,115 707,119 701,123 695,126 689,130 684,134 678,139 673,143 667,148 662,152 657,157 653,163 649,168 645,174 641,180 638,187 636,193 634,200" fill="none" stroke="#71a1cc" stroke-width="1.53" stroke-opacity="0.24" stroke-linecap="round"/>
<polyline points="826,10 830,16 833,22 837,28 840,34 842,41 844,48 845,54 846,61 845,68 844,75 842,82 840,89 836,95 832,100 828,106 823,111 817,115 812,119 806,123 800,127 794,130 787,133 781,136 774,138 768,141 761,143 755,145 748,148 741,150 735,152 728,155 722,157 715,160 709,163 703,167 697,170 691,174 686,178 680,183 675,188 671,193 667,199" fill="none" stroke="#71a1cc" stroke-width="1.14" stroke-opacity="0.30" stroke-linecap="round"/>
<polyline points="42,42 49,44 56,46 63,48 69,50 76,52 83,53 90,55 97,56 103,57 110,58 117,58 124,57 131,57 138,56 145,54 152,52 158,50 165,47 171,44 178,41 184,38 190,35 196,31 202,28 208,24 214,21 220,17 227,14 233,11 239,8 246,5 252,2 259,-0 265,-2 272,-4 279,-6 286,-7 293,-8 300,-8 307,-7 314,-6 320,-5 327,-3 334,-0 340,3 346,6 352,9 358,13 364,17 370,21 376,24 382,28 387,32 393,36 399,40 405,44 411,48 417,52 422,56 428,60 434,63 440,67 446,71 451,75 457,79 463,83 469,87 474,92 480,96" fill="none" stroke="#71a0cb" stroke-width="1.42" stroke-opacity="0.40" stroke-linecap="round"/>
<polyline points="433,65 439,69 445,73 450,77 456,80 462,84 468,88 473,92 479,97 485,101 490,105 495,110 500,115 506,120 510,125 515,130 520,135 525,140 529,145 533,151 538,156 542,162 546,168 550,173 554,179 559,185 563,190 567,196" fill="none" stroke="#72a0cb" stroke-width="1.06" stroke-opacity="0.19" stroke-linecap="round"/>
<polyline points="110,90 116,89 123,88 130,86 137,84 143,81 150,78 156,75 162,71 167,67 173,63 179,59 184,54 190,50 195,45 200,41 206,37 211,32 217,28 223,24 229,20 235,17 241,13 247,10 253,7 260,4 266,2 273,-1 280,-2 286,-4 293,-4 300,-5 307,-4 314,-3 321,-2 328,0 334,3 341,5 347,8 353,12 359,15 365,19 371,23 377,26 383,30 389,34 395,38 401,42 406,46 412,49 418,53 424,57 430,61 436,65 441,69 447,73 453,77 459,81 465,85 470,89 476,93 481,97 487,102 492,106 497,111 502,116 507,121 512,126 517,131 522,136" fill="none" stroke="#72a0ca" stroke-width="1.33" stroke-opacity="0.20" stroke-linecap="round"/>
<polyline points="392,95 399,93 405,91 412,90 419,90 426,90 433,91 440,93 447,95 454,97 460,100 466,102 473,106 479,109 485,113 491,117 496,121 502,125 507,129 512,134 518,139 523,144 527,149 532,154 537,159 541,165 546,170 550,176 554,181 559,187 563,192 567,198" fill="none" stroke="#72a0ca" stroke-width="0.84" stroke-opacity="0.44" stroke-linecap="round"/>
<polyline points="-50,13 -45,9 -39,5 -33,1 -27,-2 -20,-4 -14,-6 -7,-7 0,-7 7,-7 14,-6 21,-4 28,-2 34,-0 41,2 47,5 54,8 60,11 67,14 73,17 79,19 86,22 93,24 99,26 106,28 113,29 120,31 127,31 134,32 141,32 148,31 155,30 162,29 168,28 175,26 182,24 188,22 195,19 202,17 208,14 214,11 221,9 227,6 234,3 240,1 247,-2 254,-4 260,-6 267,-8 274,-9 281,-11 288,-11 295,-12 302,-11 309,-11 316,-9 322,-7 329,-5 335,-2 342,1 348,5 354,8 360,12 365,16 371,20 377,24 383,28 388,32 394,36 400,40" fill="none" stroke="#72a0ca" stroke-width="0.71" stroke-opacity="0.35" stroke-linecap="round"/>
<polyline points="41,129 47,132 54,135 60,137 67,140 73,142 80,143 87,144 94,145 101,144 108,144 115,142 122,140 128,138 134,135 140,131 146,127 152,123 157,118 161,113 166,107 170,102 175,96 179,91 183,85 187,79 191,73 195,68 199,62 203,57 208,51 212,46 217,41 222,36 227,31 233,27 238,23 244,19 250,15 256,12 262,8 269,6 276,3 282,1 289,-0 296,-1 303,-1 310,-1 317,0 324,2 330,4 337,6 343,9 350,12 356,15 362,19 368,22 374,26 380,30 386,33 392,37 398,41 404,45 410,48 415,52 421,56 427,60 433,64 439,67 445,71" fill="none" stroke="#73a0c9" stroke-width="0.72" stroke-opacity="0.29" stroke-linecap="round"/>
<polyline points="242,21 248,17 254,13 261,10 267,7 273,5 280,3 287,1 294,-0 301,-1 308,-1 315,0 322,1 328,3 335,6 341,8 348,11 354,14 360,18 366,21 372,25 378,29 384,32 390,36 396,40 402,44 408,47 414,51 420,55 425,59 431,62 437,66 443,70 449,74 455,78 460,82 466,86 472,90 477,94 483,99 488,103 493,108 499,112 504,117 509,122 514,127 518,132 523,138 527,143 532,148 536,154 540,160 545,165 549,171 553,176 557,182 561,188 565,193 569,199" fill="none" stroke="#73a0c9" stroke-width="1.02" stroke-opacity="0.20" stroke-linecap="round"/>
<polyline points="881,102 879,109 877,116 874,122 870,128 867,134 862,140 858,145 853,150 849,155 844,160 839,165 834,170 829,175 824,180 819,185 814,190 809,195" fill="none" stroke="#739fc8" stroke-width="0.90" stroke-opacity="0.41" stroke-linecap="round"/>
<polyline points="147,-26 154,-25 161,-23 168,-22 175,-21 182,-21 189,-21 196,-21 203,-21 210,-22 217,-23 224,-24 231,-25 237,-26 244,-28 251,-29 258,-30 265,-31 272,-32 279,-33 286,-33 293,-33 300,-32 307,-30 314,-29 320,-26 326,-23 333,-20 339,-16 344,-12 350,-8 356,-4 361,1 366,5 372,10 377,14 382,19 387,23 393,28 398,32 404,37 409,41 415,46 420,50 426,54 431,58 437,62 443,66 448,70 454,75 460,79 465,83 471,87 476,92 482,96 487,100 492,105 498,110 503,115 508,120 512,125 517,130 522,135 526,141 531,146 535,152 539,157 543,163 547,168 551,174" fill="none" stroke="#739fc8" stroke-width="1.09" stroke-opacity="0.41" stroke-linecap="round"/>
<polyline points="160,58 167,55 173,52 179,48 185,44 190,41 196,37 202,33 208,29 214,25 220,22 226,18 232,15 238,11 244,8 251,5 257,3 264,0 270,-2 277,-4 284,-5 291,-6 298,-6 305,-6 312,-5 319,-4 326,-2 332,0 339,3 345,6 351,10 357,13 363,17 369,20 375,24 381,28 386,32 392,36 398,40 404,44 410,48 416,51 421,55 427,59 433,63 439,67 445,71 451,75 456,79 462,83 468,87 473,91 479,95 484,100 490,104 495,109 500,114 505,118 510,123 515,128 520,134 524,139 529,144 533,150 537,155 541,161 546,167 550,172 554,178 558,184" fill="none" stroke="#749fc8" stroke-width="0.75" stroke-opacity="0.23" stroke-linecap="round"/>
<polyline points="636,108 634,114 631,121 628,127 626,134 623,140 620,147 618,153 616,160 614,167 612,174 611,180 610,187 610,194" fill="none" stroke="#749fc7" stroke-width="0.82" stroke-opacity="0.40" stroke-linecap="round"/>
<polyline points="251,77 252,71 254,64 256,57 259,51 263,45 267,39 272,34 277,30 283,25 289,22 295,19 302,17 309,16 316,15 323,15 330,16 337,18 343,19 350,22 357,24 363,27 369,30 376,33 382,36 388,39 394,43 400,46 406,50 412,53 418,57 424,60 430,64 436,68 442,71 448,75 454,79 460,83 466,87 471,91 477,95 482,99 488,104 493,108 498,113 504,118 509,123 513,128 518,133 523,138 527,143 532,149 536,154 540,160 545,165 549,171 553,177 557,182 561,188 565,194 569,199" fill="none" stroke="#749fc7" stroke-width="0.86" stroke-opacity="0.26" stroke-linecap="round"/>
<polyline points="766,140 759,142 753,144 746,147 740,149 733,151 726,154 720,156 714,159 707,162 701,166 695,169 689,173 684,178 679,182 674,187 669,193 665,198" fill="none" stroke="#759fc6" stroke-width="1.17" stroke-opacity="0.23" stroke-linecap="round"/>
<polyline points="-11,-1 -4,-2 3,-3 10,-2 17,-1 24,1 31,3 37,5 44,7 50,10 57,13 63,15 70,18 76,21 83,23 89,26 96,28 103,30 110,31 117,32 123,33 130,34 137,34 144,33 151,33 158,31 165,30 172,28 179,26 185,24 192,21 198,19 205,16 211,14 218,11 224,8 231,5 237,3 244,0 250,-2 257,-4 264,-6 270,-8 277,-10 284,-11 291,-11 298,-11 305,-11 312,-10 319,-8 325,-6 332,-3 338,-0 344,3 351,6 356,10 362,14 368,18 374,22 380,26 385,30 391,34 397,38 403,42 408,46 414,50 420,54 426,57 432,61 437,65" fill="none" stroke="#759ec6" stroke-width="1.19" stroke-opacity="0.30" stroke-linecap="round"/>
</g>
<rect y="124" width="900" height="102" fill="#05060a" fill-opacity="0.86"/>
<line x1="0" y1="150" x2="900" y2="150" stroke="#1a1e28"/>
<text x="51" y="184" font-family="ui-monospace,'Cascadia Code',Consolas,'DejaVu Sans Mono',monospace" font-size="22" fill="#4fb3ff" font-weight="600">46</text>
<text x="51" y="206" font-family="ui-monospace,'Cascadia Code',Consolas,'DejaVu Sans Mono',monospace" font-size="11" fill="#8a93a6" letter-spacing="1.1">MERGED UPSTREAM</text>
<line x1="183" y1="170" x2="183" y2="206" stroke="#1a1e28"/>
<text x="200" y="184" font-family="ui-monospace,'Cascadia Code',Consolas,'DejaVu Sans Mono',monospace" font-size="22" fill="#4fb3ff" font-weight="600">3,088</text>
<text x="200" y="206" font-family="ui-monospace,'Cascadia Code',Consolas,'DejaVu Sans Mono',monospace" font-size="11" fill="#8a93a6" letter-spacing="1.1">INTEGRATIONS WATCHED</text>
<line x1="371" y1="170" x2="371" y2="206" stroke="#1a1e28"/>
<text x="388" y="184" font-family="ui-monospace,'Cascadia Code',Consolas,'DejaVu Sans Mono',monospace" font-size="22" fill="#4fb3ff" font-weight="600">637</text>
<text x="388" y="206" font-family="ui-monospace,'Cascadia Code',Consolas,'DejaVu Sans Mono',monospace" font-size="11" fill="#8a93a6" letter-spacing="1.1">BREAKING AHEAD</text>
<line x1="513" y1="170" x2="513" y2="206" stroke="#1a1e28"/>
<text x="530" y="184" font-family="ui-monospace,'Cascadia Code',Consolas,'DejaVu Sans Mono',monospace" font-size="22" fill="#4fb3ff" font-weight="600">23</text>
<text x="530" y="206" font-family="ui-monospace,'Cascadia Code',Consolas,'DejaVu Sans Mono',monospace" font-size="11" fill="#8a93a6" letter-spacing="1.1">NPM INSTALL SCRIPTS</text>
<line x1="694" y1="170" x2="694" y2="206" stroke="#1a1e28"/>
<text x="710" y="184" font-family="ui-monospace,'Cascadia Code',Consolas,'DejaVu Sans Mono',monospace" font-size="22" fill="#4fb3ff" font-weight="600">DAY 21</text>
<text x="710" y="206" font-family="ui-monospace,'Cascadia Code',Consolas,'DejaVu Sans Mono',monospace" font-size="11" fill="#8a93a6" letter-spacing="1.1">DAILY FABLE STREAK</text>
<text x="886" y="138" text-anchor="end" font-family="ui-monospace,'Cascadia Code',Consolas,'DejaVu Sans Mono',monospace" font-size="9.5" fill="#8a93a6" opacity="0.75">seed 2026-08-17</text>
</svg>